<svg width="426" height="512" viewBox="0 0 426 512" fill="none" xmlns="http://www.w3.org/2000/svg">
<g clip-path="url(#clip0)">
<path d="M245.333 89.1733C239.445 89.1733 234.666 84.3947 234.666 78.5067V42.6667C234.666 30.912 225.088 21.3333 213.333 21.3333C201.578 21.3333 192 30.912 192 42.6667V78.5067C192 84.3947 187.221 89.1733 181.333 89.1733C175.445 89.1733 170.666 84.416 170.666 78.5067V42.6667C170.666 19.136 189.802 0 213.333 0C236.864 0 256 19.136 256 42.6667V78.5067C256 84.416 251.221 89.1733 245.333 89.1733Z" fill="black"/>
<path d="M213.333 512C172.16 512 138.666 478.507 138.666 437.333C138.666 431.445 143.445 426.667 149.333 426.667C155.221 426.667 160 431.445 160 437.333C160 466.731 183.936 490.667 213.333 490.667C242.73 490.667 266.666 466.731 266.666 437.333C266.666 431.445 271.445 426.667 277.333 426.667C283.221 426.667 288 431.445 288 437.333C288 478.507 254.506 512 213.333 512Z" fill="black"/>
<path d="M394.666 448H32C14.3573 448 0 433.643 0 416C0 406.635 4.07467 397.781 11.2 391.68C44.8213 363.264 64 321.92 64 278.144V213.333C64 130.987 130.986 64 213.333 64C295.68 64 362.666 130.987 362.666 213.333V278.144C362.666 321.941 381.845 363.264 415.296 391.531C422.592 397.781 426.666 406.635 426.666 416C426.666 433.643 412.33 448 394.666 448ZM213.333 85.3333C142.741 85.3333 85.3333 142.741 85.3333 213.333V278.144C85.3333 328.235 63.4027 375.488 25.152 407.829C22.6987 409.92 21.3333 412.885 21.3333 416C21.3333 421.888 26.112 426.667 32 426.667H394.666C400.554 426.667 405.333 421.888 405.333 416C405.333 412.885 403.968 409.92 401.6 407.893C363.285 375.488 341.333 328.213 341.333 278.144V213.333C341.333 142.741 283.925 85.3333 213.333 85.3333Z" fill="black"/>
<path d="M410 140.001C410 181.975 375.975 216 334.001 216C292.028 216 258 181.975 258 140.001C258 98.0276 292.028 64 334.001 64C375.975 64 410 98.0276 410 140.001Z" fill="#F44336"/>
</g>
<defs>
<clipPath id="clip0">
<rect width="426" height="512" fill="white"/>
</clipPath>
</defs>
</svg>
