<svg width="616" height="285" viewBox="0 0 616 285" fill="none" xmlns="http://www.w3.org/2000/svg">
<g clip-path="url(#clip0)">
<rect width="616" height="285" fill="white"/>
<path d="M-1.14441e-05 99C42.4481 105.475 79.6702 129.103 121.611 138C134.191 140.669 139.4 159.47 152 162.111C168.69 165.609 190.647 154.876 206.222 162.111C211.303 164.471 217.502 168.568 223.333 169C227.925 169.34 232.454 169.028 237.056 169.611C258.065 172.274 279.162 173.783 300.222 176C324.199 178.524 348.242 178.177 372.333 178C394.714 177.835 413.113 172.943 433 163C441.762 158.619 451.695 153.773 459.333 147.556C466.675 141.579 474.015 135.461 481.833 130.111C489.517 124.854 497.425 120.029 504.556 114C514.694 105.428 526.584 97.9095 535.222 87.7778C541.001 81 545.846 73.7472 551 66.5C556.891 58.2161 560.558 48.6967 569.167 42.6111C577.578 36.6648 588.975 35 599.111 35C603.628 35 612.936 32.9837 615.5 38.1111C620.649 48.4084 615.775 63.7379 612 73.4444C605.524 90.0978 605 108.903 605 126.556C605 150.123 600.548 173.426 597 196.667C594.082 215.783 593.69 236.946 586 254.889C584.011 259.53 582.639 261 577.778 261C568.966 261 560.192 261.09 551.444 259.778C539.687 258.014 526.638 255.45 516.667 248.5C505.651 240.822 499.008 224.721 493.056 213.167C483.976 195.541 474.655 178.987 463.778 162.444C450.954 142.942 427.787 127.907 406.444 119.556C392.776 114.207 378.909 113.609 364.444 115C356.825 115.733 349.976 118.146 342.5 119C327.42 120.723 308.626 122.874 294.556 116.222C280.269 109.469 262.516 113.886 247 112.778C231.202 111.649 214.348 110.882 198.5 112.056C179.371 113.472 160.467 117.817 141.222 118C125.434 118.15 109.386 118.708 93.6111 117.889C79.602 117.161 65.5366 113.214 51.5555 111.556C34.5712 109.54 13.4593 108.685 -2.3889 116C-10.7457 119.857 -19.6836 122.526 -28 126.222C-33.838 128.817 -36.3993 132.96 -35.9445 139.556C-35.2154 150.127 -21.5789 162.671 -13 168.222C-10.2382 170.009 -8.15878 173.884 -5.44446 176.056C-1.25158 179.41 3.01003 183.155 6.66666 187.056C10.4045 191.043 16.1373 192.413 19.7778 196.556C21.0117 197.96 23.8279 198.071 24 200.222C24.9665 212.303 31.4296 223.491 19.3333 233.056C16.4842 235.308 13.4797 237.543 10.2778 239.278C9.5884 239.651 7.7388 239.706 7.22221 240.222C5.677 241.767 11.3549 241.694 13.5 242.111C22.4187 243.845 31.1645 246.127 40 248.222C59.566 252.862 80.7106 259 101 259" stroke="url(#paint0_linear)" stroke-width="300"/>
</g>
<defs>
<linearGradient id="paint0_linear" x1="291" y1="85" x2="290.867" y2="261.001" gradientUnits="userSpaceOnUse">
<stop stop-color="#ACCDFF" stop-opacity="0.56"/>
<stop offset="1" stop-color="#B881FF" stop-opacity="0.53"/>
</linearGradient>
<clipPath id="clip0">
<rect width="616" height="285" fill="white"/>
</clipPath>
</defs>
</svg>
