<svg width="512" height="512" viewBox="0 0 512 512" fill="none" xmlns="http://www.w3.org/2000/svg">
<path d="M240 304V256C240 254.758 239.711 253.533 239.155 252.422C238.6 251.311 237.794 250.345 236.8 249.6L219.608 236.704C218.813 236.114 217.833 235.829 216.845 235.899C215.857 235.97 214.928 236.391 214.224 237.088C210.392 240.746 205.298 242.787 200 242.787C194.702 242.787 189.608 240.746 185.776 237.088L160 211.312C157.877 209.192 155 208.001 152 208.001C149 208.001 146.123 209.192 144 211.312L121.368 233.944C118.389 236.909 116.026 240.435 114.418 244.318C112.81 248.201 111.988 252.365 112 256.568V304C112 320.974 118.743 337.252 130.745 349.255C142.747 361.257 159.026 368 176 368C192.974 368 209.253 361.257 221.255 349.255C233.257 337.252 240 320.974 240 304Z" fill="white"/>
<path d="M152 380.312V392C152 398.365 154.529 404.47 159.029 408.971C163.53 413.471 169.635 416 176 416C182.365 416 188.47 413.471 192.971 408.971C197.471 404.47 200 398.365 200 392V380.312C184.378 385.229 167.622 385.229 152 380.312Z" fill="white"/>
<path d="M256 304H264C268.243 304 272.313 302.314 275.314 299.314C278.314 296.313 280 292.243 280 288C280 283.757 278.314 279.687 275.314 276.686C272.313 273.686 268.243 272 264 272H256V304Z" fill="white"/>
<path d="M88 304H96V272H88C83.7565 272 79.6869 273.686 76.6863 276.686C73.6857 279.687 72 283.757 72 288C72 292.243 73.6857 296.313 76.6863 299.314C79.6869 302.314 83.7565 304 88 304Z" fill="white"/>
<path d="M94.936 256H96C96.1092 243.465 101.15 231.478 110.032 222.632L132.688 200C137.895 195.041 144.809 192.274 152 192.274C159.191 192.274 166.105 195.041 171.312 200L197.088 225.776C197.863 226.544 198.909 226.975 200 226.975C201.091 226.975 202.137 226.544 202.912 225.776C206.349 222.374 210.89 220.315 215.713 219.972C220.537 219.628 225.324 221.023 229.208 223.904L246.4 236.8C249.374 239.042 251.789 241.942 253.454 245.273C255.12 248.604 255.991 252.276 256 256H257.44L263.04 228.08C264.499 220.791 264.321 213.269 262.521 206.057C260.72 198.846 257.341 192.123 252.627 186.376C247.913 180.628 241.983 175.998 235.263 172.82C228.543 169.643 221.201 167.996 213.768 168H196C190.696 168 185.609 165.893 181.858 162.142C178.107 158.391 176 153.304 176 148C176 146.939 175.579 145.922 174.828 145.172C174.078 144.421 173.061 144 172 144H147.2C131.506 144.023 116.462 150.268 105.365 161.365C94.2679 172.462 88.0233 187.506 88 203.2C88.0015 206.002 88.1993 208.801 88.592 211.576L94.936 256Z" fill="white"/>
<path d="M256 400H215.2C213.364 409.042 208.458 417.172 201.314 423.011C194.17 428.85 185.227 432.04 176 432.04C166.773 432.04 157.83 428.85 150.686 423.011C143.542 417.172 138.636 409.042 136.8 400H96C76.9116 400.023 58.6116 407.616 45.114 421.114C31.6165 434.612 24.0233 452.912 24 472V488H328V472C327.977 452.912 320.384 434.612 306.886 421.114C293.388 407.616 275.088 400.023 256 400Z" fill="white"/>
<path d="M476.856 104C474.624 95.3315 471.182 87.0205 466.632 79.312L480.168 65.776L446.224 31.832L432.688 45.368C424.979 40.8178 416.669 37.376 408 35.144V16H360V35.144C351.331 37.376 343.021 40.8178 335.312 45.368L321.776 31.832L287.832 65.776L301.368 79.312C296.818 87.0205 293.376 95.3315 291.144 104H272V152H291.144C293.376 160.669 296.818 168.98 301.368 176.688L287.832 190.224L321.776 224.168L335.312 210.632C343.021 215.182 351.331 218.624 360 220.856V240H408V220.856C416.669 218.624 424.979 215.182 432.688 210.632L446.224 224.168L480.168 190.224L466.632 176.688C471.182 168.98 474.624 160.669 476.856 152H496V104H476.856ZM384 184C372.924 184 362.097 180.716 352.888 174.562C343.679 168.409 336.501 159.663 332.263 149.43C328.024 139.198 326.915 127.938 329.076 117.075C331.237 106.212 336.57 96.2338 344.402 88.402C352.234 80.5703 362.212 75.2368 373.075 73.076C383.938 70.9153 395.198 72.0242 405.43 76.2627C415.663 80.5013 424.409 87.6789 430.562 96.8881C436.716 106.097 440 116.924 440 128C440 142.852 434.1 157.096 423.598 167.598C413.096 178.1 398.852 184 384 184Z" fill="white"/>
<path d="M392 304H416V336C416 340.243 414.314 344.313 411.314 347.314C408.313 350.314 404.243 352 400 352H344V400H408C422.852 400 437.096 394.1 447.598 383.598C458.1 373.096 464 358.852 464 344V304H488L440 256L392 304Z" fill="white"/>
</svg>
