<svg width="260" height="260" viewBox="0 0 260 260" fill="none" xmlns="http://www.w3.org/2000/svg">
<g clip-path="url(#clip0)">
<path d="M260 130C260.023 147.598 256.461 165.016 249.531 181.192L249.1 182.185C237.377 208.853 217.05 230.821 191.369 244.575C165.689 258.328 136.138 263.073 107.442 258.05C106.662 257.911 105.882 257.768 105.104 257.619C97.0628 256.06 89.1887 253.738 81.5885 250.685C80.3538 250.188 79.1282 249.674 77.9115 249.142C77.0808 248.781 76.25 248.408 75.4269 248.023C52.9113 237.588 33.8481 220.933 20.4843 200.022C7.12057 179.112 0.0132179 154.816 0 130C0 58.2038 58.2038 0 130 0C201.796 0 260 58.2038 260 130Z" fill="#E9F3FF"/>
<path opacity="0.2" d="M85.2748 92.8929C82.8208 106.738 88.2381 119.274 88.2381 119.274C88.2381 119.274 97.6342 109.364 100.088 95.5185C102.542 81.6734 97.1249 69.1369 97.1249 69.1369C97.1249 69.1369 87.7288 79.0477 85.2748 92.8929Z" fill="black"/>
<path d="M129.733 158.788C157.723 158.788 180.414 136.097 180.414 108.107C180.414 80.117 157.723 57.4264 129.733 57.4264C101.743 57.4264 79.0523 80.117 79.0523 108.107C79.0523 136.097 101.743 158.788 129.733 158.788Z" fill="#FFD1D1"/>
<path d="M109.936 146.91C109.936 146.91 116.271 177.001 116.271 180.169C116.271 183.337 146.363 197.591 146.363 197.591L173.287 192.839L182.79 164.331C182.79 164.331 166.952 140.575 166.952 131.072L109.936 146.91Z" fill="#FFD1D1"/>
<path d="M249.531 181.192L249.1 182.185C237.377 208.854 217.05 230.821 191.369 244.575C165.689 258.328 136.138 263.073 107.442 258.05C106.662 257.911 105.882 257.768 105.104 257.619C97.0628 256.06 89.1887 253.738 81.5885 250.685C80.3538 250.188 79.1282 249.674 77.9115 249.142C77.0808 248.781 76.25 248.408 75.4269 248.023C67.9665 244.567 60.8512 240.41 54.1769 235.608L48.1692 218.181L51.5461 215.604L58.4923 210.3L65.9038 204.642L67.8308 203.169L96.9115 180.969L99.0577 179.331L114.173 167.792L114.177 167.788C114.177 167.788 130.523 194.423 154.281 186.504C178.038 178.585 177.519 155.877 177.519 155.877L249.531 181.192Z" fill="#090638"/>
<path d="M85.7828 67.2754C85.7828 67.2754 101.874 32.4116 132.715 40.4571C163.556 48.5026 180.988 60.5708 182.329 72.639C183.67 84.7073 181.658 102.81 181.658 102.81C181.658 102.81 178.306 78.0027 156.851 83.3664C135.397 88.73 101.874 84.7073 101.874 84.7073L96.5101 132.98C96.5101 132.98 90.476 124.264 83.7715 129.628C77.0669 134.992 64.3282 78.0027 85.7828 67.2754Z" fill="#2F2E41"/>
<path d="M81.5885 250.685C80.3539 250.188 79.1282 249.674 77.9115 249.142C77.0808 248.781 76.25 248.408 75.4269 248.023C63.0881 242.301 51.721 234.684 41.7385 225.446C45.2731 220.631 48.1692 218.181 48.1692 218.181H71.9269L75.4885 230.158L81.5885 250.685Z" fill="#090638"/>
<path d="M228.719 178.585L249.1 182.185C243.646 194.61 236.28 206.104 227.269 216.25L228.719 178.585Z" fill="#090638"/>
</g>
<defs>
<clipPath id="clip0">
<rect width="260" height="260" fill="white"/>
</clipPath>
</defs>
</svg>
