<svg width="512" height="512" viewBox="0 0 512 512" fill="none" xmlns="http://www.w3.org/2000/svg">
<g clip-path="url(#clip0)">
<path d="M320 138.667C308.224 138.667 298.667 129.109 298.667 117.333V85.3334H213.333V117.333C213.333 129.109 203.776 138.667 192 138.667C180.224 138.667 170.667 129.109 170.667 117.333V85.3334C170.667 61.8027 189.803 42.6667 213.333 42.6667H298.667C322.197 42.6667 341.333 61.8027 341.333 85.3334V117.333C341.333 129.109 331.776 138.667 320 138.667Z" fill="#120C46"/>
<path d="M271.147 328.107C267.307 329.6 261.76 330.667 256 330.667C250.24 330.667 244.693 329.6 239.573 327.68L0 247.893V410.667C0 443.093 26.24 469.333 58.6667 469.333H453.333C485.76 469.333 512 443.093 512 410.667V247.893L271.147 328.107Z" fill="#120C46"/>
<path d="M512 165.333V214.187L261.12 297.813C259.413 298.453 257.707 298.667 256 298.667C254.293 298.667 252.587 298.453 250.88 297.813L0 214.187V165.333C0 132.907 26.24 106.667 58.6667 106.667H453.333C485.76 106.667 512 132.907 512 165.333Z" fill="#120C46"/>
</g>
<defs>
<clipPath id="clip0">
<rect width="512" height="512" fill="white"/>
</clipPath>
</defs>
</svg>
