<svg width="512" height="512" viewBox="0 0 512 512" fill="none" xmlns="http://www.w3.org/2000/svg">
<g clip-path="url(#clip0)">
<path d="M458.667 469.333H53.3333C23.4667 469.333 0 445.867 0 416V160C0 130.133 23.4667 106.667 53.3333 106.667H458.667C488.533 106.667 512 130.133 512 160V416C512 445.867 488.533 469.333 458.667 469.333ZM53.3333 128C36.2667 128 21.3333 142.933 21.3333 160V416C21.3333 433.067 36.2667 448 53.3333 448H458.667C475.733 448 490.667 433.067 490.667 416V160C490.667 142.933 475.733 128 458.667 128H53.3333Z" fill="black"/>
<path d="M330.667 128C324.267 128 320 123.733 320 117.333V74.6667C320 68.2667 315.733 64.0001 309.333 64.0001H202.667C196.267 64.0001 192 68.2667 192 74.6667V117.333C192 123.733 187.733 128 181.333 128C174.933 128 170.667 123.733 170.667 117.333V74.6667C170.667 57.6001 185.6 42.6667 202.667 42.6667H309.333C326.4 42.6667 341.333 57.6001 341.333 74.6667V117.333C341.333 123.733 337.067 128 330.667 128Z" fill="black"/>
<path d="M256 298.667C253.867 298.667 253.867 298.667 251.733 298.667L6.40006 213.333C2.13339 211.2 -2.13328 204.8 5.46942e-05 198.4C2.13339 194.133 8.53339 189.867 14.9334 192L256 277.333L497.067 192C503.467 189.867 507.733 192 509.867 198.4C512 204.8 509.867 209.067 503.467 211.2L258.133 296.533C258.133 298.667 258.133 298.667 256 298.667V298.667Z" fill="black"/>
</g>
<defs>
<clipPath id="clip0">
<rect width="512" height="512" fill="white"/>
</clipPath>
</defs>
</svg>
