<svg width="86" height="86" viewBox="0 0 86 86" fill="none" xmlns="http://www.w3.org/2000/svg">
<g clip-path="url(#clip0)">
<path d="M26.0586 63.6904L21.9899 67.2925C23.2854 68.7501 24.6929 70.1041 26.1996 71.3422L29.639 67.1379C28.3562 66.0853 27.159 64.9325 26.0586 63.6904Z" fill="#9286FF"/>
<path d="M20.7123 55.298L15.7268 57.4381C16.4977 59.2345 17.413 60.9652 18.4637 62.6135L23.0396 59.7058C22.1472 58.301 21.3689 56.8272 20.7123 55.298Z" fill="#9286FF"/>
<path d="M67.7428 11.3182C62.1653 8.08447 55.8329 6.38054 49.3857 6.37885C31.0487 6.40834 15.5566 19.9881 13.1256 38.1634L3.83541 28.8733L0 32.7087L15.48 48.1887L30.96 32.7087L27.1246 28.8733L18.7349 37.252C21.9226 20.3402 38.2165 9.21472 55.1283 12.4024C72.0402 15.59 83.1656 31.8839 79.978 48.7956C76.7903 65.7072 60.4964 76.8331 43.5846 73.6453C40.1179 72.9919 36.7874 71.7545 33.7348 69.9858L31.0088 74.6756C48.5045 84.8194 70.9108 78.8595 81.0545 61.3638C91.1984 43.8682 85.2385 21.462 67.7428 11.3182Z" fill="#9286FF"/>
<path d="M45.317 18.5849V48.4219L57.2518 57.3731L60.5068 53.0331L50.7419 45.7095V18.5849H45.317Z" fill="#9286FF"/>
</g>
<defs>
<clipPath id="clip0">
<rect width="86" height="86" fill="white"/>
</clipPath>
</defs>
</svg>
