<svg width="51" height="51" viewBox="0 0 51 51" fill="none" xmlns="http://www.w3.org/2000/svg">
<g clip-path="url(#clip0)">
<path d="M28.6875 44.625H20.1875C19.601 44.625 19.125 44.149 19.125 43.5625C19.125 42.976 19.601 42.5 20.1875 42.5H28.6875C30.4449 42.5 31.875 41.0699 31.875 39.3125V28.6875C31.875 28.101 32.351 27.625 32.9375 27.625C33.524 27.625 34 28.101 34 28.6875V39.3125C34 42.2408 31.6179 44.625 28.6875 44.625Z" fill="#9286FF"/>
<path d="M49.9375 23.375H28.6875C28.101 23.375 27.625 22.899 27.625 22.3125C27.625 21.726 28.101 21.25 28.6875 21.25H49.9375C50.524 21.25 51 21.726 51 22.3125C51 22.899 50.524 23.375 49.9375 23.375Z" fill="#9286FF"/>
<path d="M17 51C16.5325 51 16.0756 50.9214 15.6443 50.7684L2.9155 46.5247C1.173 45.9446 0 44.3254 0 42.5V4.25C0 1.90612 1.90613 0 4.25 0C4.72175 0 5.18075 0.078625 5.60788 0.23375L18.3345 4.47525C20.077 5.05325 21.25 6.6725 21.25 8.5V46.75C21.25 49.0939 19.3439 51 17 51ZM4.25 2.125C3.077 2.125 2.125 3.07913 2.125 4.25V42.5C2.125 43.4095 2.7115 44.217 3.587 44.5102L16.337 48.7602C17.731 49.2554 19.125 48.1397 19.125 46.75V8.5C19.125 7.58838 18.5385 6.78088 17.663 6.49188L4.913 2.24187C4.69413 2.16325 4.471 2.125 4.25 2.125V2.125Z" fill="#9286FF"/>
<path d="M32.9375 17C32.351 17 31.875 16.524 31.875 15.9375V5.3125C31.875 3.55512 30.4449 2.125 28.6875 2.125H4.25C3.6635 2.125 3.1875 1.649 3.1875 1.0625C3.1875 0.476 3.6635 0 4.25 0H28.6875C31.6179 0 34 2.38425 34 5.3125V15.9375C34 16.524 33.524 17 32.9375 17Z" fill="#9286FF"/>
<path d="M41.4375 31.875C41.1655 31.875 40.8935 31.7709 40.6852 31.5648C40.2709 31.1504 40.2709 30.4768 40.6852 30.0624L48.433 22.3146L40.6852 14.5669C40.2709 14.1525 40.2709 13.4789 40.6852 13.0645C41.0996 12.6501 41.7732 12.6501 42.1876 13.0645L50.6876 21.5645C51.102 21.9789 51.102 22.6525 50.6876 23.0669L42.1876 31.5669C41.9815 31.7709 41.7095 31.875 41.4375 31.875V31.875Z" fill="#9286FF"/>
</g>
<defs>
<clipPath id="clip0">
<rect width="51" height="51" fill="white"/>
</clipPath>
</defs>
</svg>
