<svg width="30" height="30" viewBox="0 0 30 30" fill="none" xmlns="http://www.w3.org/2000/svg">
<path d="M15 0C19.3617 0 22.9102 3.5485 22.9102 7.91016C22.9102 12.2718 19.3617 15.8203 15 15.8203C10.6383 15.8203 7.08984 12.2718 7.08984 7.91016C7.08984 3.5485 10.6383 0 15 0ZM15 14.0625C18.3924 14.0625 21.1523 11.3026 21.1523 7.91016C21.1523 4.51775 18.3924 1.75781 15 1.75781C11.6076 1.75781 8.84766 4.51775 8.84766 7.91016C8.84766 11.3026 11.6076 14.0625 15 14.0625Z" fill="#9286FF"/>
<path d="M5.15824 20.988C7.32387 18.7891 10.1948 17.5781 13.2422 17.5781H16.7578C19.8052 17.5781 22.6761 18.7891 24.8418 20.988C26.9968 23.1761 28.1836 26.0644 28.1836 29.1211C28.1836 29.6065 27.7901 30 27.3047 30H2.69531C2.20992 30 1.81641 29.6065 1.81641 29.1211C1.81641 26.0644 3.00322 23.1761 5.15824 20.988ZM26.3871 28.2422C25.9468 23.2567 21.7962 19.3359 16.7578 19.3359H13.2422C8.20377 19.3359 4.05322 23.2567 3.61289 28.2422H26.3871Z" fill="#9286FF"/>
</svg>
