<svg width="258" height="466" viewBox="0 0 258 466" fill="none" xmlns="http://www.w3.org/2000/svg">
<path d="M203.487 106H172.513C172.112 105.999 171.727 105.76 171.444 105.334C171.16 104.908 171 104.33 171 103.727V96.2728C171 95.6702 171.16 95.0925 171.444 94.6664C171.727 94.2403 172.112 94.0006 172.513 94H203.487C203.888 94.0006 204.273 94.2403 204.556 94.6664C204.84 95.0925 205 95.6702 205 96.2728V103.727C205 104.33 204.84 104.908 204.556 105.334C204.273 105.76 203.888 105.999 203.487 106Z" fill="#D59696"/>
<path d="M28.7224 440.402H38.2314L42.7554 403.723H28.7204L28.7224 440.402Z" fill="#9E616A"/>
<path d="M26.2966 437.297H45.024C48.1892 437.297 51.2254 438.554 53.4636 440.792C55.7017 443.03 56.9591 446.066 56.9594 449.231V449.619L26.2972 449.62L26.2966 437.297Z" fill="#4E4E4E"/>
<path d="M116.371 440.402H125.88L130.404 403.723H116.369L116.371 440.402Z" fill="#9E616A"/>
<path d="M113.946 437.297H132.673C135.838 437.297 138.874 438.554 141.112 440.792C143.351 443.03 144.608 446.066 144.608 449.231V449.619L113.946 449.62V437.297Z" fill="#4E4E4E"/>
<path d="M104.889 145.732L111.094 185.29L52.1454 186.066L59.9014 148.059L104.889 145.732Z" fill="#9E616A"/>
<path d="M109.384 175.631L128.159 225.624L130.486 432.803H114.585L76.5782 266.346L41.6738 428.458H26.1608L37.0199 246.179C37.0199 246.179 33.8177 209.594 50.206 188.005L54.1951 176.48L109.384 175.631Z" fill="black"/>
<path d="M28.849 214.604C30.4904 214.156 32.0137 213.354 33.3117 212.255C34.6097 211.155 35.6507 209.784 36.3616 208.239C37.0724 206.693 37.4357 205.01 37.4259 203.309C37.4161 201.608 37.0334 199.93 36.3048 198.392L61.3829 116.632L42.937 112.975L20.0006 193.118C17.4992 194.513 15.5965 196.777 14.653 199.482C13.7095 202.186 13.7908 205.142 14.8815 207.791C15.9722 210.439 17.9965 212.596 20.5708 213.851C23.1451 215.107 26.0905 215.374 28.849 214.604Z" fill="#9E616A"/>
<path d="M61.9241 167.58C61.5799 167.58 61.2366 167.546 60.8991 167.479C59.764 167.252 58.7345 166.659 57.9678 165.792C57.2011 164.925 56.7393 163.831 56.6529 162.676C56.0698 154.693 53.1806 140.796 48.0655 121.371C46.3388 114.769 46.7212 107.793 49.1592 101.419C51.5973 95.0456 55.9686 89.5947 61.6606 85.8306C67.3525 82.0666 74.0796 80.1781 80.8989 80.4298C87.7182 80.6815 94.2878 83.0609 99.6867 87.2343C103.144 89.8823 106.029 93.2025 108.168 96.9951C110.308 100.788 111.658 104.974 112.137 109.302C114.679 131.69 109.886 154.167 107.708 162.792C107.422 163.918 106.774 164.919 105.865 165.642C104.955 166.365 103.834 166.77 102.673 166.794L62.0371 167.579C61.9993 167.579 61.9618 167.58 61.9241 167.58Z" fill="#D59696"/>
<path d="M175.452 95.7613C175.208 96.3088 175.008 96.8746 174.852 97.4536L123.988 114.738L114.16 106.151L99.2632 119.291L115.185 136.182C116.472 137.546 118.166 138.457 120.014 138.776C121.861 139.096 123.763 138.808 125.433 137.955L179.861 110.153C181.829 111.361 184.118 111.94 186.424 111.815C188.73 111.689 190.942 110.865 192.768 109.451C194.594 108.037 195.946 106.101 196.644 103.9C197.343 101.7 197.355 99.3382 196.678 97.1304C196.002 94.9226 194.67 92.973 192.858 91.541C191.047 90.1089 188.842 89.2623 186.538 89.1137C184.234 88.965 181.939 89.5215 179.959 90.7089C177.978 91.8964 176.407 93.6587 175.452 95.7613Z" fill="#9E616A"/>
<path d="M122.215 115.682L103.673 131.877C103.145 132.338 102.525 132.68 101.853 132.879C101.182 133.079 100.475 133.131 99.7815 133.032C99.0879 132.934 98.4237 132.687 97.8342 132.309C97.2446 131.931 96.7435 131.43 96.3649 130.84L83.1022 110.188C80.7573 107.476 79.5841 103.944 79.8401 100.368C80.0961 96.7913 81.7603 93.4627 84.4676 91.1121C87.1749 88.7614 90.7041 87.5807 94.2809 87.8291C97.8576 88.0775 101.19 89.7347 103.546 92.4369L122.17 108.301C122.704 108.756 123.133 109.32 123.428 109.955C123.724 110.59 123.879 111.281 123.883 111.982C123.887 112.682 123.74 113.375 123.453 114.014C123.165 114.652 122.743 115.222 122.215 115.682Z" fill="#D59696"/>
<path d="M58.4533 137.566L35.5391 128.564C34.8871 128.308 34.298 127.914 33.8119 127.41C33.3258 126.905 32.9541 126.302 32.7221 125.641C32.4901 124.98 32.4033 124.277 32.4676 123.58C32.5319 122.882 32.7457 122.207 33.0946 121.599L45.3203 100.316C46.6494 96.9876 49.2443 94.3219 52.5359 92.9037C55.8276 91.4855 59.5473 91.4305 62.8795 92.7508C66.2116 94.0712 68.8841 96.6591 70.311 99.947C71.7379 103.235 71.8027 106.954 70.4911 110.29L64.9847 134.127C64.8268 134.81 64.5237 135.45 64.096 136.005C63.6684 136.56 63.1261 137.016 62.5063 137.342C61.8864 137.668 61.2036 137.857 60.5042 137.896C59.8048 137.935 59.1052 137.822 58.4533 137.566Z" fill="#D59696"/>
<path d="M75.439 75.3902C89.2047 75.3902 100.364 64.2309 100.364 50.4653C100.364 36.6996 89.2047 25.5403 75.439 25.5403C61.6734 25.5403 50.5141 36.6996 50.5141 50.4653C50.5141 64.2309 61.6734 75.3902 75.439 75.3902Z" fill="#9E616A"/>
<path d="M92.5853 40.4456C97.933 40.4155 103.281 40.3854 108.628 40.3552C109.009 36.7106 107.387 33.0846 105.023 30.2843C102.533 27.59 99.6921 25.2416 96.5775 23.3021C93.5101 21.1971 90.3324 19.0442 86.6859 18.3085C83.6293 17.6919 80.4701 18.1198 77.3822 18.5491C73.287 19.1186 69.1919 19.688 65.097 20.2575C60.6019 20.8825 55.8988 21.5895 52.2479 24.2853C47.3104 27.931 45.4217 34.319 43.8353 40.2477L35.0536 73.0634L86.9242 78.5043C88.8005 78.8274 90.7226 78.7716 92.577 78.34C93.5005 78.1079 94.3355 77.6096 94.9782 76.9069C95.6208 76.2042 96.0428 75.3282 96.1918 74.3877C96.3412 72.2722 94.6629 70.5407 93.3002 68.916C90.0492 64.8877 88.0977 59.9674 87.7041 54.8059C87.3104 49.6444 88.4931 44.485 91.0956 40.0103L92.5853 40.4456Z" fill="#252430"/>
</svg>
