<svg width="485" height="648" viewBox="0 0 485 648" fill="none" xmlns="http://www.w3.org/2000/svg">
<path d="M452.798 288.005C441.088 288.005 431.595 278.512 431.595 266.802C431.595 255.093 441.088 245.6 452.798 245.6C464.507 245.6 474 255.093 474 266.802C474 278.512 464.507 288.005 452.798 288.005Z" fill="#849FFF"/>
<path d="M450.921 274.681C451.381 274.804 451.866 274.769 452.305 274.582L452.332 274.57L458.079 272.046C458.346 271.929 458.588 271.758 458.791 271.544C458.994 271.33 459.154 271.077 459.263 270.799C459.371 270.521 459.426 270.223 459.423 269.923C459.421 269.623 459.361 269.326 459.248 269.05C459.134 268.774 458.97 268.523 458.763 268.313C458.556 268.103 458.311 267.937 458.043 267.825C457.774 267.713 457.487 267.657 457.197 267.66C456.907 267.664 456.621 267.726 456.355 267.844L452.631 269.485L447.752 257.59C447.638 257.314 447.474 257.064 447.268 256.855C447.061 256.645 446.817 256.479 446.549 256.367C446.28 256.255 445.994 256.198 445.704 256.201C445.415 256.204 445.129 256.266 444.863 256.383H444.862L444.892 256.461L444.861 256.383C444.324 256.621 443.9 257.069 443.681 257.63C443.463 258.192 443.469 258.82 443.697 259.377L449.437 273.363C449.571 273.685 449.774 273.971 450.031 274.199C450.288 274.427 450.592 274.591 450.92 274.677L450.921 274.681Z" fill="white"/>
<path d="M151.316 125.012H278.552C280.13 125.012 281.644 124.383 282.761 123.265C283.877 122.147 284.504 120.63 284.504 119.049C284.504 117.467 283.877 115.95 282.761 114.832C281.644 113.714 280.13 113.085 278.552 113.085H151.316C149.738 113.085 148.224 113.714 147.107 114.832C145.991 115.95 145.364 117.467 145.364 119.049C145.364 120.63 145.991 122.147 147.107 123.265C148.224 124.383 149.738 125.012 151.316 125.012Z" fill="#849FFF"/>
<path d="M126.169 144.889H278.537C280.12 144.887 281.638 144.258 282.757 143.139C283.876 142.021 284.504 140.506 284.504 138.926C284.504 137.346 283.876 135.83 282.757 134.712C281.638 133.594 280.12 132.965 278.537 132.963H126.169C125.384 132.962 124.606 133.115 123.88 133.414C123.154 133.713 122.495 134.152 121.939 134.706C121.383 135.26 120.942 135.918 120.642 136.642C120.341 137.366 120.186 138.142 120.186 138.926C120.186 139.709 120.341 140.486 120.642 141.21C120.942 141.934 121.383 142.591 121.939 143.145C122.495 143.699 123.154 144.138 123.88 144.437C124.606 144.736 125.384 144.89 126.169 144.889Z" fill="#849FFF"/>
<path d="M151.316 203.195H278.552C280.13 203.195 281.644 203.824 282.761 204.942C283.877 206.06 284.504 207.577 284.504 209.158C284.504 210.74 283.877 212.257 282.761 213.375C281.644 214.493 280.13 215.122 278.552 215.122H151.316C149.737 215.122 148.223 214.493 147.107 213.375C145.991 212.257 145.364 210.74 145.364 209.158C145.364 207.577 145.991 206.06 147.107 204.942C148.223 203.824 149.737 203.195 151.316 203.195Z" fill="black"/>
<path d="M126.161 224.398H278.529C280.114 224.398 281.634 225.026 282.754 226.144C283.875 227.263 284.504 228.779 284.504 230.361C284.504 231.942 283.875 233.459 282.754 234.577C281.634 235.696 280.114 236.324 278.529 236.324H126.161C124.576 236.324 123.057 235.696 121.936 234.577C120.816 233.459 120.186 231.942 120.186 230.361C120.186 228.779 120.816 227.263 121.936 226.144C123.057 225.026 124.576 224.398 126.161 224.398Z" fill="black"/>
<path d="M151.316 306.557H278.552C280.13 306.557 281.644 305.928 282.761 304.81C283.877 303.692 284.504 302.175 284.504 300.594C284.504 299.012 283.877 297.495 282.761 296.377C281.644 295.259 280.13 294.63 278.552 294.63H151.316C149.738 294.63 148.224 295.259 147.107 296.377C145.991 297.495 145.364 299.012 145.364 300.594C145.364 302.175 145.991 303.692 147.107 304.81C148.224 305.928 149.738 306.557 151.316 306.557Z" fill="black"/>
<path d="M126.169 326.434H278.537C280.12 326.432 281.638 325.803 282.757 324.684C283.876 323.566 284.504 322.051 284.504 320.471C284.504 318.891 283.876 317.375 282.757 316.257C281.638 315.139 280.12 314.51 278.537 314.508H126.169C125.384 314.507 124.606 314.66 123.88 314.959C123.154 315.258 122.495 315.697 121.939 316.251C121.383 316.805 120.942 317.463 120.642 318.187C120.341 318.911 120.186 319.687 120.186 320.471C120.186 321.254 120.341 322.031 120.642 322.755C120.942 323.479 121.383 324.136 121.939 324.69C122.495 325.244 123.154 325.683 123.88 325.982C124.606 326.281 125.384 326.435 126.169 326.434Z" fill="black"/>
<path d="M332.209 150.189C320.5 150.189 311.007 140.697 311.007 128.987C311.007 117.277 320.5 107.785 332.209 107.785C343.919 107.785 353.412 117.277 353.412 128.987C353.412 140.697 343.919 150.189 332.209 150.189Z" fill="#849FFF"/>
<path d="M334.222 136.938C334.703 136.939 335.171 136.787 335.556 136.504L335.58 136.487L340.607 132.728C340.84 132.554 341.036 132.336 341.184 132.088C341.331 131.84 341.427 131.565 341.466 131.281C341.505 130.996 341.486 130.707 341.41 130.429C341.334 130.152 341.203 129.892 341.024 129.664C340.846 129.436 340.623 129.245 340.368 129.101C340.114 128.958 339.833 128.864 339.542 128.827C339.25 128.79 338.955 128.809 338.671 128.884C338.387 128.958 338.121 129.087 337.889 129.262L334.633 131.703L326.939 121.891C326.761 121.663 326.538 121.473 326.284 121.329C326.031 121.186 325.75 121.093 325.459 121.055C325.169 121.018 324.873 121.036 324.59 121.11C324.307 121.184 324.041 121.312 323.809 121.487H323.808L323.856 121.552L323.807 121.487C323.337 121.84 323.03 122.36 322.953 122.934C322.875 123.508 323.034 124.088 323.394 124.548L332.443 136.084C332.652 136.35 332.922 136.565 333.23 136.712C333.538 136.86 333.877 136.936 334.22 136.935L334.222 136.938Z" fill="white"/>
<path d="M308.357 219.758C308.356 222.455 308.903 225.125 309.968 227.617C311.033 230.109 312.594 232.373 314.563 234.281C316.532 236.188 318.869 237.701 321.442 238.734C324.014 239.766 326.772 240.298 329.557 240.298C329.739 240.302 329.921 240.295 330.103 240.277C334.272 240.174 338.317 238.882 341.732 236.563C345.146 234.245 347.779 231.002 349.3 227.242C350.822 223.481 351.164 219.37 350.285 215.422C349.405 211.474 347.343 207.865 344.356 205.047C341.369 202.228 337.59 200.325 333.492 199.576C329.393 198.827 325.158 199.265 321.316 200.835C317.473 202.405 314.194 205.038 311.889 208.404C309.584 211.77 308.356 215.719 308.357 219.758Z" fill="black"/>
<path d="M332.209 331.734C320.5 331.734 311.007 322.242 311.007 310.532C311.007 298.822 320.5 289.33 332.209 289.33C343.919 289.33 353.412 298.822 353.412 310.532C353.412 322.242 343.919 331.734 332.209 331.734Z" fill="black"/>
<path d="M308.357 219.61C308.356 222.326 308.906 225.016 309.977 227.526C311.047 230.036 312.617 232.316 314.597 234.238C316.576 236.159 318.926 237.683 321.512 238.723C324.099 239.763 326.871 240.298 329.671 240.298C329.854 240.302 330.038 240.295 330.22 240.277C332.974 233.613 334.036 226.404 333.316 219.259C332.595 212.113 330.114 205.24 326.082 199.22C321.123 200.045 316.624 202.543 313.381 206.274C310.137 210.006 308.358 214.729 308.357 219.61Z" fill="#849FFF"/>
<path d="M204.162 277.674C204.849 278.797 205.956 279.602 207.238 279.912C208.521 280.222 209.874 280.011 211.001 279.326L269.053 244.015C269.611 243.676 270.096 243.23 270.481 242.704C270.866 242.178 271.144 241.581 271.297 240.948C271.451 240.314 271.479 239.657 271.378 239.013C271.277 238.369 271.05 237.752 270.71 237.196C270.369 236.639 269.922 236.155 269.395 235.771C268.867 235.387 268.268 235.111 267.633 234.957C266.998 234.804 266.339 234.777 265.694 234.877C265.048 234.978 264.429 235.204 263.871 235.543L205.819 270.854C204.692 271.539 203.885 272.643 203.574 273.922C203.263 275.201 203.475 276.55 204.162 277.674Z" fill="#3F3D56"/>
<path d="M262.214 242.363C266.314 249.065 272.314 254.405 279.457 257.706C286.599 261.007 294.563 262.123 302.341 260.911C310.119 259.699 317.362 256.214 323.154 250.897C328.946 245.58 333.027 238.669 334.881 231.039C336.735 223.409 336.278 215.403 333.568 208.032C330.859 200.661 326.018 194.257 319.659 189.629C313.299 185.001 305.706 182.358 297.841 182.034C289.975 181.709 282.189 183.718 275.468 187.806C266.465 193.297 260.013 202.124 257.529 212.352C255.044 222.579 256.729 233.373 262.214 242.363ZM321.682 206.191C324.757 211.218 326.267 217.041 326.023 222.924C325.779 228.806 323.792 234.485 320.311 239.241C316.831 243.998 312.014 247.618 306.47 249.644C300.927 251.671 294.905 252.013 289.167 250.626C283.428 249.24 278.231 246.188 274.232 241.856C270.233 237.524 267.612 232.107 266.7 226.29C265.789 220.472 266.628 214.516 269.111 209.174C271.594 203.832 275.609 199.344 280.65 196.278C287.412 192.176 295.529 190.915 303.221 192.774C310.914 194.632 317.553 199.457 321.682 206.191Z" fill="#3F3D56"/>
<path d="M135.172 594.594H145.449L143.614 537.702L116.452 539.17L135.172 594.594Z" fill="#FFB8B8"/>
<path d="M133.769 627.29C136.871 628.706 139.47 617.235 142.086 619.807C149.406 627 156.968 628.566 166.737 625.425L166.964 625.387C167.553 625.198 168.098 624.891 168.565 624.484C169.033 624.078 169.413 623.581 169.682 623.024C169.952 622.466 170.106 621.86 170.134 621.241C170.162 620.623 170.065 620.005 169.847 619.425C169.587 618.731 169.162 618.111 168.61 617.618C168.057 617.124 167.392 616.773 166.673 616.593L158.889 614.647L146.667 593.153L134.191 592.31C131.409 595.857 129.468 599.987 128.513 604.392C127.558 608.796 127.615 613.36 128.678 617.739C129.81 622.361 131.558 626.281 133.769 627.29Z" fill="#2F2E41"/>
<path d="M37.533 587.074L47.09 590.854L66.309 537.275L40.511 528.65L37.533 587.074Z" fill="#FFB8B8"/>
<path d="M24.204 616.962C26.568 619.42 33.203 609.709 34.69 613.063C38.851 622.443 45.307 626.681 55.547 627.354L55.771 627.402C56.389 627.442 57.009 627.357 57.593 627.151C58.177 626.945 58.713 626.623 59.169 626.204C59.624 625.785 59.99 625.277 60.244 624.712C60.498 624.148 60.635 623.537 60.646 622.918C60.659 622.177 60.492 621.444 60.159 620.782C59.827 620.12 59.338 619.548 58.736 619.117L52.213 614.444L48.753 589.962L37.461 584.59C33.57 586.864 30.246 589.991 27.738 593.736C25.23 597.48 23.604 601.745 22.982 606.208C22.335 610.922 22.518 615.21 24.204 616.962Z" fill="#2F2E41"/>
<path d="M68.734 312.361L84.512 316.418C85.706 316.725 86.953 316.761 88.163 316.523C89.373 316.285 90.514 315.779 91.502 315.042C92.491 314.306 93.302 313.357 93.876 312.266C94.45 311.176 94.773 309.97 94.82 308.738C94.864 307.605 94.674 306.476 94.262 305.42C93.85 304.364 93.225 303.404 92.426 302.6C91.627 301.796 90.671 301.165 89.617 300.746C88.564 300.328 87.435 300.131 86.302 300.167L72.404 300.616L45.623 290.864L70.936 271.986L68 245.559L18.668 285.163C17.789 285.869 17.064 286.749 16.54 287.748C16.017 288.748 15.705 289.844 15.625 290.969C15.489 292.861 16.014 294.74 17.11 296.288C18.206 297.836 19.804 298.956 21.633 299.457C33.192 308.89 50.032 311.779 68.734 312.361Z" fill="#FFB8B8"/>
<path d="M104.704 213.259C90.514 213.259 79.011 201.756 79.011 187.566C79.011 173.376 90.514 161.873 104.704 161.873C118.894 161.873 130.397 173.376 130.397 187.566C130.397 201.756 118.894 213.259 104.704 213.259Z" fill="#FFB8B8"/>
<path d="M73.138 222.802L107.64 236.75C106.627 225.843 109.486 214.928 115.715 205.918L87.086 199.311C87.458 208.055 82.73 215.871 73.138 222.802Z" fill="#FFB8B8"/>
<path d="M66.898 282.63C94.711 284.856 109.924 281.163 133.333 267.582L124.524 247.027C124.966 243.932 124.547 240.775 123.311 237.904C122.076 235.032 120.072 232.556 117.521 230.749L108.374 224.27L80.479 216.195L79.228 216.258C75.517 216.443 72.001 217.976 69.339 220.567C66.677 223.159 65.051 226.633 64.766 230.337C58.706 248.448 58.666 265.954 66.898 282.63Z" fill="#960B24"/>
<path d="M72.404 325.574L131.865 318.968L136.27 299.881C146.033 285.144 141.771 271.644 130.397 258.773C109.664 272.079 90.419 277.828 62.861 273.454C70.19 291.278 76.958 308.794 72.404 325.574Z" fill="#2F2E41"/>
<path d="M26.157 548.003L73.505 545.434L88.921 422.841L101.401 544.7L157.558 542.13C140.428 462.019 128.527 385.968 131.865 316.031L73.138 321.17C53.235 342.156 43.352 375.655 37.535 415.5C31.717 455.345 27.029 501.536 26.157 548.003Z" fill="#2F2E41"/>
<path d="M76.42 164.176C71.543 164.176 67.589 160.222 67.589 155.345C67.589 150.467 71.543 146.514 76.42 146.514C81.297 146.514 85.251 150.467 85.251 155.345C85.251 160.222 81.297 164.176 76.42 164.176Z" fill="#2F2E41"/>
<path d="M85.52 153.183C85.375 150.942 84.381 148.841 82.741 147.308C81.101 145.774 78.938 144.923 76.693 144.929C76.875 144.906 77.056 144.877 77.242 144.866C79.579 144.715 81.88 145.5 83.64 147.046C85.399 148.593 86.471 150.775 86.621 153.112C86.772 155.449 85.987 157.751 84.441 159.51C82.894 161.269 80.712 162.341 78.375 162.492C78.189 162.504 78.006 162.499 77.822 162.499C80.05 162.217 82.086 161.097 83.516 159.366C84.946 157.635 85.663 155.424 85.52 153.183Z" fill="#2F2E41"/>
<path d="M85.57 156.954C93.446 150.42 116.037 158.724 117.494 163.117C128.145 164.569 136.209 170.783 136.209 181.832C129.877 184.426 122.675 184.106 114.89 181.832C102.48 191.945 101.63 204.659 109.177 219.261L99.892 219.447L88.383 202.626L87.832 219.688L66.549 219.261V194.81C66.48 186.68 68.351 178.651 72.007 171.39C75.324 164.946 80.471 161.184 85.57 156.954Z" fill="#2F2E41"/>
<path d="M105.389 200.154C103.056 200.154 101.166 197.507 101.166 194.241C101.166 190.976 103.056 188.329 105.389 188.329C107.721 188.329 109.612 190.976 109.612 194.241C109.612 197.507 107.721 200.154 105.389 200.154Z" fill="#FFB8B8"/>
<path d="M218.686 260.989C217.139 259.762 215.351 258.877 213.44 258.392C211.529 257.907 209.537 257.834 207.595 258.177C205.654 258.519 203.806 259.27 202.173 260.38C200.541 261.49 199.16 262.934 198.122 264.617C197.795 265.151 197.507 265.708 197.258 266.283L136.271 278.666L120.033 240.332C119.413 238.868 118.51 237.541 117.376 236.429C116.243 235.317 114.901 234.441 113.428 233.853C111.956 233.265 110.382 232.975 108.798 233.002C107.214 233.028 105.651 233.369 104.198 234.006C102.746 234.642 101.434 235.561 100.337 236.71C99.241 237.859 98.381 239.215 97.809 240.7C97.237 242.184 96.963 243.768 97.004 245.359C97.044 246.95 97.398 248.518 98.045 249.971L121.84 303.414L121.906 303.529C123.286 305.424 125.238 306.821 127.471 307.514C129.704 308.207 132.1 308.158 134.303 307.374L201.52 283.175C201.881 283.458 202.256 283.722 202.645 283.966C204.321 285.009 206.197 285.684 208.151 285.948C210.105 286.211 212.092 286.057 213.983 285.496C215.873 284.934 217.624 283.977 219.121 282.688C220.617 281.4 221.826 279.807 222.668 278.017C222.839 277.655 222.994 277.289 223.132 276.919C224.156 274.132 224.277 271.091 223.479 268.23C222.681 265.37 221.003 262.835 218.686 260.989Z" fill="#FFB8B8"/>
<path d="M285 209.005C284.997 207.414 284.301 205.888 283.066 204.762C281.83 203.636 280.155 203.003 278.408 203H272.5C270.5 206.5 267 211.5 267 215H278.408C280.154 215 281.829 214.368 283.065 213.244C284.3 212.121 284.996 210.596 285 209.005Z" fill="#849FFF"/>
<path d="M284.5 230.5C285 229.5 284 227 283.5 226.5C283 226 281.342 224.5 279.5 224.5H266.5C266 226.5 268.5 234 270 236.5H279.5C282 235.5 283.511 233.987 284 233.5C284.489 233.013 284.499 231.189 284.5 230.5Z" fill="#849FFF"/>
</svg>
