<svg width="775" height="608" viewBox="0 0 775 608" fill="none" xmlns="http://www.w3.org/2000/svg">
<rect width="775" height="608" fill="#CDCDCD" fill-opacity="0.32"/>
<path d="M541.164 165.899H377.442C376.938 165.898 376.454 165.698 376.097 165.341C375.741 164.984 375.54 164.5 375.539 163.995V11.9035C375.54 11.3989 375.741 10.9151 376.097 10.5582C376.454 10.2014 376.938 10.0006 377.442 10H541.164C541.669 10.0006 542.152 10.2014 542.509 10.5582C542.866 10.9151 543.067 11.3989 543.067 11.9035V163.995C543.067 164.5 542.866 164.984 542.509 165.34C542.153 165.697 541.669 165.898 541.164 165.899ZM377.442 10.7599C377.14 10.7605 376.85 10.881 376.636 11.0948C376.423 11.3087 376.302 11.5986 376.301 11.901V163.995C376.302 164.297 376.423 164.587 376.636 164.801C376.85 165.015 377.14 165.136 377.442 165.136H541.164C541.467 165.136 541.757 165.015 541.97 164.801C542.184 164.587 542.305 164.298 542.305 163.995V11.9035C542.304 11.6011 542.184 11.3112 541.97 11.0973C541.756 10.8835 541.467 10.763 541.164 10.7624L377.442 10.7599Z" fill="#A8A8A8" fill-opacity="0.77"/>
<path d="M454.804 49.5216C454.461 49.5216 454.133 49.6577 453.89 49.9001C453.648 50.1425 453.512 50.4711 453.512 50.8139C453.512 51.1566 453.648 51.4853 453.89 51.7277C454.133 51.97 454.461 52.1062 454.804 52.1062H525.693C526.036 52.1062 526.365 51.97 526.607 51.7277C526.849 51.4853 526.985 51.1566 526.985 50.8139C526.985 50.4711 526.849 50.1425 526.607 49.9001C526.365 49.6577 526.036 49.5216 525.693 49.5216H454.804Z" fill="#A8A8A8" fill-opacity="0.77"/>
<path d="M454.804 57.2762C454.461 57.2762 454.133 57.4123 453.89 57.6547C453.648 57.897 453.512 58.2257 453.512 58.5685C453.512 58.9112 453.648 59.2399 453.89 59.4823C454.133 59.7246 454.461 59.8608 454.804 59.8608H490.994C491.337 59.8608 491.666 59.7246 491.908 59.4823C492.15 59.2399 492.286 58.9112 492.286 58.5685C492.286 58.2257 492.15 57.897 491.908 57.6547C491.666 57.4123 491.337 57.2762 490.994 57.2762H454.804Z" fill="#A8A8A8" fill-opacity="0.77"/>
<path d="M392.844 94.8091C392.502 94.8091 392.173 94.9461 391.931 95.1881C391.689 95.4301 391.552 95.7591 391.552 96.1021C391.552 96.4441 391.689 96.7731 391.931 97.0161C392.173 97.2581 392.502 97.3941 392.844 97.3941H525.762C526.105 97.3941 526.433 97.2581 526.676 97.0161C526.918 96.7731 527.054 96.4441 527.054 96.1021C527.054 95.7591 526.918 95.4301 526.676 95.1881C526.433 94.9461 526.105 94.8091 525.762 94.8091H392.844Z" fill="#A8A8A8" fill-opacity="0.77"/>
<path d="M392.844 102.564C392.502 102.564 392.173 102.7 391.931 102.943C391.689 103.185 391.552 103.514 391.552 103.856C391.552 104.199 391.689 104.528 391.931 104.77C392.173 105.013 392.502 105.149 392.844 105.149H491.063C491.406 105.149 491.735 105.013 491.977 104.77C492.219 104.528 492.355 104.199 492.355 103.856C492.355 103.514 492.219 103.185 491.977 102.943C491.735 102.7 491.406 102.564 491.063 102.564H392.844Z" fill="#A8A8A8" fill-opacity="0.77"/>
<path d="M392.844 110.143C392.502 110.143 392.173 110.279 391.931 110.522C391.689 110.764 391.552 111.093 391.552 111.435C391.552 111.778 391.689 112.107 391.931 112.349C392.173 112.592 392.502 112.728 392.844 112.728H525.762C526.105 112.728 526.433 112.592 526.676 112.349C526.918 112.107 527.054 111.778 527.054 111.435C527.054 111.093 526.918 110.764 526.676 110.522C526.433 110.279 526.105 110.143 525.762 110.143H392.844Z" fill="#A8A8A8" fill-opacity="0.77"/>
<path d="M392.844 117.898C392.502 117.898 392.173 118.034 391.931 118.276C391.689 118.519 391.552 118.847 391.552 119.19C391.552 119.533 391.689 119.862 391.931 120.104C392.173 120.346 392.502 120.482 392.844 120.482H491.063C491.406 120.482 491.735 120.346 491.977 120.104C492.219 119.862 492.355 119.533 492.355 119.19C492.355 118.847 492.219 118.519 491.977 118.276C491.735 118.034 491.406 117.898 491.063 117.898H392.844Z" fill="#A8A8A8" fill-opacity="0.77"/>
<path d="M451.666 75.9192H348.903C348.398 75.9186 347.915 75.7179 347.558 75.361C347.201 75.0042 347 74.5203 347 74.0157V28.9035C347 28.3988 347.201 27.915 347.558 27.5581C347.915 27.2012 348.398 27.0005 348.903 27H451.666C452.171 27.0005 452.654 27.2012 453.011 27.5581C453.368 27.915 453.569 28.3988 453.569 28.9035V74.0157C453.569 74.5203 453.368 75.0042 453.011 75.361C452.654 75.7179 452.171 75.9186 451.666 75.9192Z" fill="#787878" fill-opacity="0.12"/>
<path d="M524.94 148.069H485.988C485.483 148.068 485 147.868 484.643 147.511C484.286 147.154 484.085 146.67 484.085 146.165V139.922C484.085 139.418 484.286 138.934 484.643 138.577C485 138.22 485.483 138.019 485.988 138.019H524.94C525.445 138.019 525.929 138.22 526.285 138.577C526.642 138.934 526.843 139.418 526.843 139.922V146.165C526.843 146.67 526.642 147.154 526.285 147.511C525.929 147.868 525.445 148.068 524.94 148.069Z" fill="black" fill-opacity="0.2"/>
<path d="M380.896 43.6522C380.449 43.6536 380.088 44.2333 380.089 44.9471C380.09 45.6588 380.451 46.2354 380.896 46.2368H418.993C419.439 46.2354 419.8 45.6557 419.799 44.942C419.799 44.2302 419.438 43.6536 418.993 43.6522H380.896Z" fill="white"/>
<path d="M380.896 51.1407C380.449 51.1421 380.088 51.7219 380.089 52.4356C380.09 53.1473 380.451 53.7239 380.896 53.7253H418.993C419.439 53.7239 419.8 53.1442 419.799 52.4305C419.799 51.7187 419.438 51.1421 418.993 51.1407H380.896Z" fill="white"/>
<path d="M380.896 58.5387C380.449 58.5402 380.088 59.1199 380.089 59.8336C380.09 60.5453 380.451 61.1219 380.896 61.1233H397.289C397.735 61.1219 398.096 60.5422 398.095 59.8285C398.095 59.1168 397.734 58.5401 397.289 58.5387H380.896Z" fill="white"/>
<path d="M361.552 62.631C367.261 62.631 371.89 58.0011 371.89 52.2897C371.89 46.5783 367.261 41.9483 361.552 41.9483C355.842 41.9483 351.214 46.5783 351.214 52.2897C351.214 58.0011 355.842 62.631 361.552 62.631Z" fill="white" fill-opacity="0.2"/>
<path d="M443.718 348.121H279.996C279.491 348.12 279.008 347.919 278.651 347.562C278.294 347.206 278.094 346.722 278.093 346.217V194.125C278.094 193.62 278.294 193.137 278.651 192.78C279.008 192.423 279.491 192.222 279.996 192.222H443.718C444.223 192.222 444.706 192.423 445.063 192.78C445.42 193.137 445.62 193.62 445.621 194.125V346.217C445.62 346.721 445.42 347.205 445.063 347.562C444.706 347.919 444.223 348.12 443.718 348.12V348.121ZM279.996 192.982C279.694 192.982 279.404 193.103 279.19 193.316C278.976 193.53 278.856 193.82 278.855 194.123V346.217C278.856 346.519 278.976 346.809 279.19 347.023C279.404 347.237 279.694 347.357 279.996 347.358H443.718C444.02 347.357 444.31 347.237 444.524 347.023C444.738 346.809 444.858 346.519 444.859 346.217V194.125C444.858 193.823 444.738 193.533 444.524 193.319C444.31 193.105 444.02 192.985 443.718 192.984L279.996 192.982Z" fill="#A8A8A8" fill-opacity="0.77"/>
<path d="M357.358 231.743C357.015 231.743 356.686 231.879 356.444 232.122C356.202 232.364 356.066 232.693 356.066 233.036C356.066 233.378 356.202 233.707 356.444 233.949C356.686 234.192 357.015 234.328 357.358 234.328H428.247C428.589 234.328 428.918 234.192 429.16 233.949C429.403 233.707 429.539 233.378 429.539 233.036C429.539 232.693 429.403 232.364 429.16 232.122C428.918 231.879 428.589 231.743 428.247 231.743H357.358Z" fill="#A8A8A8" fill-opacity="0.77"/>
<path d="M357.358 239.498C357.015 239.498 356.686 239.634 356.444 239.876C356.202 240.119 356.066 240.447 356.066 240.79C356.066 241.133 356.202 241.462 356.444 241.704C356.686 241.946 357.015 242.082 357.358 242.082H393.548C393.891 242.082 394.219 241.946 394.462 241.704C394.704 241.462 394.84 241.133 394.84 240.79C394.84 240.447 394.704 240.119 394.462 239.876C394.219 239.634 393.891 239.498 393.548 239.498H357.358Z" fill="#A8A8A8" fill-opacity="0.77"/>
<path d="M295.398 277.031C295.055 277.031 294.727 277.167 294.485 277.41C294.242 277.652 294.106 277.981 294.106 278.323C294.106 278.666 294.242 278.995 294.485 279.237C294.727 279.48 295.055 279.616 295.398 279.616H428.316C428.659 279.616 428.987 279.48 429.229 279.237C429.472 278.995 429.608 278.666 429.608 278.323C429.608 277.981 429.472 277.652 429.229 277.41C428.987 277.167 428.659 277.031 428.316 277.031H295.398Z" fill="#A8A8A8" fill-opacity="0.77"/>
<path d="M295.398 284.786C295.055 284.786 294.727 284.922 294.485 285.164C294.242 285.407 294.106 285.735 294.106 286.078C294.106 286.421 294.242 286.75 294.485 286.992C294.727 287.234 295.055 287.37 295.398 287.37H393.617C393.96 287.37 394.288 287.234 394.531 286.992C394.773 286.75 394.909 286.421 394.909 286.078C394.909 285.735 394.773 285.407 394.531 285.164C394.288 284.922 393.96 284.786 393.617 284.786H295.398Z" fill="#A8A8A8" fill-opacity="0.77"/>
<path d="M295.398 292.365C295.055 292.365 294.727 292.501 294.485 292.743C294.242 292.986 294.106 293.314 294.106 293.657C294.106 294 294.242 294.329 294.485 294.571C294.727 294.813 295.055 294.95 295.398 294.95H428.316C428.659 294.95 428.987 294.813 429.229 294.571C429.472 294.329 429.608 294 429.608 293.657C429.608 293.314 429.472 292.986 429.229 292.743C428.987 292.501 428.659 292.365 428.316 292.365H295.398Z" fill="#A8A8A8" fill-opacity="0.77"/>
<path d="M295.398 300.12C295.055 300.12 294.727 300.256 294.485 300.498C294.242 300.74 294.106 301.069 294.106 301.412C294.106 301.755 294.242 302.083 294.485 302.326C294.727 302.568 295.055 302.704 295.398 302.704H393.617C393.96 302.704 394.288 302.568 394.531 302.326C394.773 302.083 394.909 301.755 394.909 301.412C394.909 301.069 394.773 300.74 394.531 300.498C394.288 300.256 393.96 300.12 393.617 300.12H295.398Z" fill="#A8A8A8" fill-opacity="0.77"/>
<path d="M339.442 258.971H236.679C236.174 258.97 235.69 258.77 235.334 258.413C234.977 258.056 234.776 257.572 234.776 257.067V211.955C234.776 211.451 234.977 210.967 235.334 210.61C235.69 210.253 236.174 210.052 236.679 210.052H339.442C339.946 210.052 340.43 210.253 340.787 210.61C341.144 210.967 341.344 211.451 341.345 211.955V257.067C341.344 257.572 341.144 258.056 340.787 258.413C340.43 258.77 339.946 258.97 339.442 258.971Z" fill="#787878" fill-opacity="0.12"/>
<path d="M427.494 330.291H388.542C388.037 330.29 387.553 330.089 387.197 329.732C386.84 329.376 386.639 328.892 386.639 328.387V322.144C386.639 321.639 386.84 321.156 387.197 320.799C387.553 320.442 388.037 320.241 388.542 320.241H427.494C427.998 320.241 428.482 320.442 428.839 320.799C429.196 321.156 429.396 321.639 429.397 322.144V328.387C429.396 328.892 429.196 329.376 428.839 329.732C428.482 330.089 427.998 330.29 427.494 330.291Z" fill="black" fill-opacity="0.2"/>
<path d="M283.449 225.874C283.003 225.875 282.642 226.455 282.643 227.169C282.644 227.88 283.004 228.457 283.449 228.458H321.547C321.993 228.457 322.354 227.877 322.353 227.164C322.352 226.452 321.992 225.875 321.547 225.874H283.449Z" fill="white"/>
<path d="M283.449 233.362C283.003 233.364 282.642 233.944 282.643 234.657C282.644 235.369 283.004 235.946 283.449 235.947H321.547C321.993 235.946 322.354 235.366 322.353 234.652C322.352 233.94 321.992 233.364 321.547 233.362H283.449Z" fill="white"/>
<path d="M283.449 240.76C283.003 240.762 282.642 241.341 282.643 242.055C282.644 242.767 283.004 243.344 283.449 243.345H299.843C300.289 243.344 300.65 242.764 300.649 242.05C300.648 241.338 300.288 240.762 299.843 240.76H283.449Z" fill="white"/>
<path d="M264.106 244.853C269.815 244.853 274.444 240.223 274.444 234.511C274.444 228.8 269.815 224.17 264.106 224.17C258.396 224.17 253.768 228.8 253.768 234.511C253.768 240.223 258.396 244.853 264.106 244.853Z" fill="white"/>
<path d="M261.625 192.503H97.9029C97.3984 192.502 96.9148 192.301 96.5581 191.944C96.2014 191.588 96.0007 191.104 96 190.599V38.5076C96.0007 38.0029 96.2014 37.5192 96.5581 37.1623C96.9148 36.8055 97.3984 36.6047 97.9029 36.6041H261.625C262.13 36.6047 262.613 36.8055 262.97 37.1623C263.327 37.5192 263.527 38.0029 263.528 38.5076V190.599C263.527 191.103 263.327 191.587 262.97 191.944C262.613 192.301 262.13 192.502 261.625 192.502V192.503ZM97.9029 37.364C97.6006 37.3646 97.3108 37.4851 97.097 37.6989C96.8832 37.9128 96.7628 38.2027 96.7622 38.5051V190.599C96.7628 190.901 96.8832 191.191 97.097 191.405C97.3108 191.619 97.6006 191.739 97.9029 191.74H261.625C261.928 191.739 262.217 191.619 262.431 191.405C262.645 191.191 262.765 190.901 262.766 190.599V38.5076C262.765 38.2052 262.645 37.9153 262.431 37.7014C262.217 37.4876 261.927 37.3671 261.625 37.3665L97.9029 37.364Z" fill="#A8A8A8" fill-opacity="0.77"/>
<path d="M119.582 77.3363C119.239 77.3363 118.91 77.4724 118.668 77.7148C118.426 77.9571 118.29 78.2858 118.29 78.6286C118.29 78.9713 118.426 79.3 118.668 79.5424C118.91 79.7847 119.239 79.9209 119.582 79.9209H190.471C190.814 79.9209 191.142 79.7847 191.385 79.5424C191.627 79.3 191.763 78.9713 191.763 78.6286C191.763 78.2858 191.627 77.9571 191.385 77.7148C191.142 77.4724 190.814 77.3363 190.471 77.3363H119.582Z" fill="#A8A8A8" fill-opacity="0.77"/>
<path d="M119.582 85.0909C119.239 85.0909 118.91 85.227 118.668 85.4694C118.426 85.7117 118.29 86.0404 118.29 86.3832C118.29 86.7259 118.426 87.0546 118.668 87.297C118.91 87.5393 119.239 87.6755 119.582 87.6755H155.772C156.115 87.6755 156.443 87.5393 156.686 87.297C156.928 87.0546 157.064 86.7259 157.064 86.3832C157.064 86.0404 156.928 85.7117 156.686 85.4694C156.443 85.227 156.115 85.0909 155.772 85.0909H119.582Z" fill="#A8A8A8" fill-opacity="0.77"/>
<path d="M107.292 125C106.949 125 106.621 125.136 106.378 125.379C106.136 125.621 106 125.95 106 126.292C106 126.635 106.136 126.964 106.378 127.206C106.621 127.449 106.949 127.585 107.292 127.585H240.21C240.552 127.585 240.881 127.449 241.123 127.206C241.366 126.964 241.502 126.635 241.502 126.292C241.502 125.95 241.366 125.621 241.123 125.379C240.881 125.136 240.552 125 240.21 125H107.292Z" fill="#F2F2F2" fill-opacity="0.58"/>
<path d="M107.292 132.755C106.949 132.755 106.621 132.891 106.378 133.133C106.136 133.376 106 133.704 106 134.047C106 134.39 106.136 134.718 106.378 134.961C106.621 135.203 106.949 135.339 107.292 135.339H205.511C205.854 135.339 206.182 135.203 206.424 134.961C206.667 134.718 206.803 134.39 206.803 134.047C206.803 133.704 206.667 133.376 206.424 133.133C206.182 132.891 205.854 132.755 205.511 132.755H107.292Z" fill="#F2F2F2" fill-opacity="0.58"/>
<path d="M107.292 140.334C106.949 140.334 106.621 140.47 106.378 140.712C106.136 140.955 106 141.283 106 141.626C106 141.969 106.136 142.298 106.378 142.54C106.621 142.782 106.949 142.918 107.292 142.918H240.21C240.552 142.918 240.881 142.782 241.123 142.54C241.366 142.298 241.502 141.969 241.502 141.626C241.502 141.283 241.366 140.955 241.123 140.712C240.881 140.47 240.552 140.334 240.21 140.334H107.292Z" fill="#F2F2F2" fill-opacity="0.58"/>
<path d="M107.292 148.088C106.949 148.088 106.621 148.225 106.378 148.467C106.136 148.709 106 149.038 106 149.381C106 149.724 106.136 150.052 106.378 150.295C106.621 150.537 106.949 150.673 107.292 150.673H205.511C205.854 150.673 206.182 150.537 206.424 150.295C206.667 150.052 206.803 149.724 206.803 149.381C206.803 149.038 206.667 148.709 206.424 148.467C206.182 148.225 205.854 148.088 205.511 148.088H107.292Z" fill="#F2F2F2" fill-opacity="0.58"/>
<path d="M327.666 115.919H224.903C224.398 115.918 223.915 115.718 223.558 115.361C223.201 115.004 223.001 114.52 223 114.015V68.9036C223.001 68.3989 223.201 67.9151 223.558 67.5582C223.915 67.2013 224.398 67.0006 224.903 67H327.666C328.171 67.0006 328.654 67.2013 329.011 67.5582C329.368 67.9151 329.568 68.3989 329.569 68.9036V114.015C329.568 114.52 329.368 115.004 329.011 115.361C328.654 115.718 328.171 115.918 327.666 115.919Z" fill="#787878" fill-opacity="0.12"/>
<path d="M189.718 175.884H150.765C150.261 175.883 149.777 175.682 149.42 175.325C149.064 174.968 148.863 174.485 148.863 173.98V167.737C148.863 167.232 149.064 166.749 149.42 166.392C149.777 166.035 150.261 165.834 150.765 165.833H189.718C190.222 165.834 190.706 166.035 191.063 166.392C191.42 166.749 191.62 167.232 191.621 167.737V173.98C191.62 174.485 191.42 174.968 191.063 175.325C190.706 175.682 190.222 175.883 189.718 175.884Z" fill="black" fill-opacity="0.2"/>
<path d="M265.682 82.8221C265.236 82.8236 264.875 83.4033 264.876 84.117C264.876 84.8287 265.237 85.4053 265.682 85.4067H303.779C304.226 85.4053 304.587 84.8256 304.586 84.1119C304.585 83.4002 304.225 82.8235 303.779 82.8221H265.682Z" fill="white" fill-opacity="0.5"/>
<path d="M271.674 90.3107C271.227 90.3121 270.866 90.8919 270.867 91.6056C270.868 92.3173 271.229 92.8939 271.674 92.8953H309.771C310.217 92.8939 310.578 92.3142 310.578 91.6005C310.577 90.8887 310.216 90.3121 309.771 90.3107H271.674Z" fill="white" fill-opacity="0.5"/>
<path d="M271.674 97.7087C271.227 97.7101 270.866 98.2898 270.867 99.0035C270.868 99.7153 271.229 100.291 271.674 100.293H288.067C288.513 100.291 288.874 99.7121 288.874 98.9984C288.873 98.2867 288.512 97.7101 288.067 97.7087H271.674Z" fill="white" fill-opacity="0.5"/>
<path d="M246.338 101.801C252.048 101.801 256.676 97.1711 256.676 91.4597C256.676 85.7483 252.048 81.1183 246.338 81.1183C240.628 81.1183 236 85.7483 236 91.4597C236 97.1711 240.628 101.801 246.338 101.801Z" fill="white" fill-opacity="0.5"/>
<path d="M605.919 525.707H442.197C441.692 525.706 441.209 525.505 440.852 525.148C440.495 524.791 440.295 524.308 440.294 523.803V371.711C440.295 371.206 440.495 370.723 440.852 370.366C441.209 370.009 441.692 369.808 442.197 369.807H605.919C606.423 369.808 606.907 370.009 607.264 370.366C607.62 370.723 607.821 371.206 607.822 371.711V523.803C607.821 524.307 607.621 524.791 607.264 525.148C606.907 525.505 606.423 525.706 605.919 525.706V525.707ZM442.197 370.567C441.894 370.568 441.605 370.688 441.391 370.902C441.177 371.116 441.057 371.406 441.056 371.709V523.803C441.057 524.105 441.177 524.395 441.391 524.609C441.605 524.823 441.894 524.943 442.197 524.944H605.919C606.221 524.943 606.511 524.823 606.725 524.609C606.939 524.395 607.059 524.105 607.06 523.803V371.711C607.059 371.409 606.939 371.119 606.725 370.905C606.511 370.691 606.221 370.571 605.919 370.57L442.197 370.567Z" fill="#A8A8A8" fill-opacity="0.77"/>
<path d="M519.559 409.329C519.216 409.329 518.887 409.465 518.645 409.708C518.403 409.95 518.267 410.279 518.267 410.621C518.267 410.964 518.403 411.293 518.645 411.535C518.887 411.778 519.216 411.914 519.559 411.914H590.448C590.791 411.914 591.119 411.778 591.361 411.535C591.604 411.293 591.74 410.964 591.74 410.621C591.74 410.279 591.604 409.95 591.361 409.708C591.119 409.465 590.791 409.329 590.448 409.329H519.559Z" fill="#A8A8A8" fill-opacity="0.77"/>
<path d="M519.559 417.084C519.216 417.084 518.887 417.22 518.645 417.462C518.403 417.705 518.267 418.033 518.267 418.376C518.267 418.719 518.403 419.048 518.645 419.29C518.887 419.532 519.216 419.668 519.559 419.668H555.749C556.092 419.668 556.42 419.532 556.663 419.29C556.905 419.048 557.041 418.719 557.041 418.376C557.041 418.033 556.905 417.705 556.663 417.462C556.42 417.22 556.092 417.084 555.749 417.084H519.559Z" fill="#A8A8A8" fill-opacity="0.77"/>
<path d="M457.599 454.617C457.256 454.617 456.928 454.753 456.685 454.996C456.443 455.238 456.307 455.567 456.307 455.909C456.307 456.252 456.443 456.581 456.685 456.823C456.928 457.066 457.256 457.202 457.599 457.202H590.517C590.86 457.202 591.188 457.066 591.43 456.823C591.673 456.581 591.809 456.252 591.809 455.909C591.809 455.567 591.673 455.238 591.43 454.996C591.188 454.753 590.86 454.617 590.517 454.617H457.599Z" fill="#A8A8A8" fill-opacity="0.77"/>
<path d="M457.599 462.372C457.256 462.372 456.928 462.508 456.685 462.75C456.443 462.993 456.307 463.321 456.307 463.664C456.307 464.007 456.443 464.336 456.685 464.578C456.928 464.82 457.256 464.956 457.599 464.956H555.818C556.161 464.956 556.489 464.82 556.732 464.578C556.974 464.336 557.11 464.007 557.11 463.664C557.11 463.321 556.974 462.993 556.732 462.75C556.489 462.508 556.161 462.372 555.818 462.372H457.599Z" fill="#A8A8A8" fill-opacity="0.77"/>
<path d="M457.599 469.951C457.256 469.951 456.928 470.087 456.685 470.329C456.443 470.572 456.307 470.9 456.307 471.243C456.307 471.586 456.443 471.915 456.685 472.157C456.928 472.399 457.256 472.535 457.599 472.535H590.517C590.86 472.535 591.188 472.399 591.43 472.157C591.673 471.915 591.809 471.586 591.809 471.243C591.809 470.9 591.673 470.572 591.43 470.329C591.188 470.087 590.86 469.951 590.517 469.951H457.599Z" fill="#A8A8A8" fill-opacity="0.77"/>
<path d="M457.599 477.705C457.256 477.705 456.928 477.841 456.685 478.084C456.443 478.326 456.307 478.655 456.307 478.998C456.307 479.34 456.443 479.669 456.685 479.911C456.928 480.154 457.256 480.29 457.599 480.29H555.818C556.161 480.29 556.489 480.154 556.732 479.911C556.974 479.669 557.11 479.34 557.11 478.998C557.11 478.655 556.974 478.326 556.732 478.084C556.489 477.841 556.161 477.705 555.818 477.705H457.599Z" fill="#A8A8A8" fill-opacity="0.77"/>
<path d="M501.643 436.557H398.88C398.375 436.556 397.891 436.356 397.535 435.999C397.178 435.642 396.977 435.158 396.977 434.653V389.541C396.977 389.036 397.178 388.553 397.535 388.196C397.891 387.839 398.375 387.638 398.88 387.638H501.643C502.147 387.638 502.631 387.839 502.988 388.196C503.345 388.553 503.545 389.036 503.546 389.541V434.653C503.545 435.158 503.345 435.642 502.988 435.999C502.631 436.356 502.147 436.556 501.643 436.557Z" fill="#787878" fill-opacity="0.12"/>
<path d="M589.695 507.877H550.742C550.238 507.876 549.754 507.675 549.398 507.318C549.041 506.962 548.84 506.478 548.84 505.973V499.73C548.84 499.225 549.041 498.741 549.398 498.385C549.754 498.028 550.238 497.827 550.742 497.826H589.695C590.2 497.827 590.683 498.028 591.04 498.385C591.397 498.741 591.597 499.225 591.598 499.73V505.973C591.597 506.478 591.397 506.962 591.04 507.318C590.683 507.675 590.2 507.876 589.695 507.877Z" fill="black" fill-opacity="0.2"/>
<path d="M445.65 403.46C445.204 403.461 444.843 404.041 444.844 404.755C444.845 405.466 445.205 406.043 445.65 406.044H483.748C484.194 406.043 484.555 405.463 484.554 404.749C484.553 404.038 484.193 403.461 483.748 403.46H445.65Z" fill="white"/>
<path d="M445.65 410.948C445.204 410.95 444.843 411.529 444.844 412.243C444.845 412.955 445.205 413.531 445.65 413.533H483.748C484.194 413.531 484.555 412.952 484.554 412.238C484.553 411.526 484.193 410.95 483.748 410.948H445.65Z" fill="white"/>
<path d="M445.65 418.346C445.204 418.348 444.843 418.927 444.844 419.641C444.845 420.353 445.205 420.929 445.65 420.931H462.044C462.49 420.929 462.851 420.35 462.85 419.636C462.849 418.924 462.489 418.348 462.044 418.346H445.65Z" fill="#787878" fill-opacity="0.46"/>
<path d="M426.307 422.439C432.016 422.439 436.645 417.809 436.645 412.097C436.645 406.386 432.016 401.756 426.307 401.756C420.597 401.756 415.968 406.386 415.968 412.097C415.968 417.809 420.597 422.439 426.307 422.439Z" fill="white"/>
<path d="M713.807 404.35L718.74 408.892L714.82 402.313C717.908 396.711 722.959 391.87 722.959 391.87C722.959 391.87 733.437 401.912 733.437 409.806C733.437 417.7 728.746 420.457 722.959 420.457C717.172 420.457 712.48 417.7 712.48 409.806C712.545 407.916 712.997 406.059 713.807 404.35Z" fill="#F2F2F2"/>
<path d="M720.008 409.138V409.527C720.031 414.05 720.794 417.579 722.29 420.064C722.311 420.101 722.334 420.136 722.355 420.172L722.523 420.07L722.683 419.97C721.023 417.287 720.435 413.494 720.414 409.549C720.412 409.422 720.41 409.293 720.412 409.163C720.418 407.493 720.52 405.804 720.684 404.163C720.695 404.036 720.709 403.907 720.722 403.778C720.95 401.612 721.277 399.544 721.612 397.746C721.635 397.619 721.66 397.492 721.685 397.367C722.265 394.327 722.856 392.125 722.991 391.638C723.006 391.578 723.016 391.546 723.018 391.538L722.835 391.486L722.833 391.484L722.648 391.432C722.646 391.44 722.613 391.549 722.559 391.754C722.353 392.516 721.818 394.587 721.292 397.319C721.269 397.442 721.244 397.569 721.221 397.696C720.948 399.154 720.68 400.784 720.468 402.495C720.414 402.924 720.366 403.348 720.324 403.766C720.308 403.895 720.295 404.024 720.283 404.151C720.106 405.925 720.014 407.588 720.008 409.138Z" fill="white"/>
<path d="M718.392 396.454C718.313 396.556 718.232 396.66 718.15 396.766C719.12 397.23 720.156 397.543 721.221 397.696C721.35 397.715 721.481 397.733 721.612 397.746C721.997 397.787 722.384 397.808 722.771 397.808C724.404 397.81 726.016 397.438 727.483 396.722C727.401 396.617 727.32 396.515 727.239 396.413C725.844 397.08 724.317 397.425 722.771 397.423C722.409 397.423 722.046 397.404 721.685 397.367C721.552 397.353 721.421 397.336 721.292 397.319C720.288 397.175 719.311 396.883 718.392 396.454Z" fill="white"/>
<path d="M714.76 401.807C714.697 401.921 714.635 402.034 714.574 402.148C716.245 403.35 718.227 404.046 720.283 404.151C720.416 404.157 720.549 404.161 720.684 404.163C720.738 404.165 720.792 404.165 720.846 404.165C722.557 404.165 724.244 403.757 725.767 402.974C727.29 402.192 728.604 401.058 729.602 399.667C729.527 399.551 729.449 399.438 729.372 399.324C728.416 400.699 727.14 401.823 725.656 402.599C724.171 403.374 722.521 403.78 720.846 403.779C720.805 403.779 720.763 403.78 720.722 403.778C720.589 403.778 720.457 403.774 720.324 403.766C718.318 403.668 716.385 402.988 714.76 401.807Z" fill="white"/>
<path d="M713.035 405.633C712.989 405.775 712.943 405.916 712.902 406.058C714.745 408.074 717.285 409.314 720.008 409.527C720.143 409.537 720.278 409.545 720.414 409.549C720.557 409.556 720.701 409.558 720.846 409.558C723.115 409.556 725.327 408.838 727.166 407.507C729.004 406.175 730.377 404.298 731.088 402.142C731.006 401.986 730.919 401.832 730.832 401.676C730.201 403.837 728.887 405.736 727.086 407.087C725.286 408.439 723.097 409.17 720.846 409.173C720.701 409.173 720.557 409.169 720.412 409.163C720.278 409.158 720.143 409.15 720.008 409.138C717.316 408.921 714.815 407.664 713.035 405.633Z" fill="white"/>
<path d="M615.439 201.62L614.904 209.171L617.949 201.08C625.064 199.863 632.89 200.913 632.89 200.913C632.89 200.913 631.407 217.231 624.444 222.787C617.481 228.343 611.747 226.143 607.674 221.035C603.6 215.927 602.73 209.846 609.693 204.289C611.243 203.053 613.252 202.2 615.439 201.62Z" fill="#DEFFD9" fill-opacity="0.7"/>
<path d="M615.58 210.464L615.237 210.738C611.264 213.941 608.688 217.098 607.549 220.168C607.532 220.213 607.517 220.257 607.5 220.302L607.708 220.378L607.909 220.448C609.107 217.095 612.039 213.907 615.504 211.111C615.615 211.02 615.728 210.927 615.843 210.838C617.32 209.668 618.882 208.569 620.445 207.558C620.565 207.479 620.689 207.4 620.812 207.321C622.882 205.997 624.937 204.83 626.758 203.861C626.887 203.792 627.016 203.724 627.144 203.658C630.234 202.031 632.592 201.003 633.117 200.779C633.18 200.75 633.216 200.736 633.224 200.732L633.141 200.534V200.531L633.057 200.331C633.049 200.335 632.929 200.383 632.711 200.479C631.893 200.834 629.69 201.819 626.91 203.278C626.785 203.344 626.656 203.412 626.527 203.481C625.048 204.266 623.423 205.176 621.765 206.193C621.348 206.448 620.94 206.704 620.542 206.961C620.417 207.038 620.294 207.117 620.173 207.196C618.484 208.289 616.953 209.378 615.58 210.464Z" fill="white"/>
<path d="M625.632 200.109C625.486 200.111 625.338 200.113 625.186 200.115C625.46 201.298 625.912 202.433 626.527 203.481C626.601 203.608 626.678 203.736 626.758 203.861C626.993 204.23 627.247 204.586 627.52 204.928C628.668 206.37 630.13 207.531 631.795 208.322C631.828 208.176 631.861 208.032 631.894 207.889C630.325 207.127 628.946 206.022 627.859 204.656C627.604 204.336 627.366 204.003 627.144 203.658C627.063 203.532 626.986 203.404 626.91 203.278C626.331 202.29 625.9 201.223 625.632 200.109Z" fill="white"/>
<path d="M618.354 200.672C618.209 200.696 618.065 200.721 617.921 200.747C618.037 203.068 618.819 205.307 620.173 207.196C620.262 207.318 620.352 207.438 620.445 207.558C620.481 207.607 620.519 207.655 620.557 207.702C621.762 209.213 623.309 210.415 625.071 211.208C626.833 212.002 628.758 212.364 630.688 212.265C630.737 212.117 630.783 211.969 630.829 211.821C628.942 211.944 627.054 211.61 625.324 210.845C623.595 210.081 622.076 208.909 620.897 207.431C620.868 207.395 620.839 207.358 620.812 207.321C620.718 207.204 620.628 207.084 620.542 206.961C619.216 205.122 618.456 202.936 618.354 200.672Z" fill="white"/>
<path d="M613.765 201.841C613.607 201.901 613.45 201.959 613.296 202.024C612.815 205.07 613.509 208.184 615.237 210.738C615.324 210.863 615.412 210.988 615.504 211.111C615.598 211.242 615.698 211.371 615.8 211.499C617.399 213.5 619.589 214.947 622.058 215.633C624.526 216.319 627.148 216.209 629.551 215.319C629.63 215.136 629.705 214.951 629.782 214.765C627.431 215.729 624.831 215.905 622.372 215.267C619.913 214.63 617.726 213.212 616.139 211.227C616.038 211.1 615.939 210.97 615.843 210.838C615.753 210.715 615.665 210.591 615.58 210.464C613.877 207.935 613.226 204.842 613.765 201.841Z" fill="white"/>
<path d="M612.078 191.817V235.156C612.077 236.184 611.668 237.168 610.942 237.895C610.216 238.621 609.232 239.03 608.205 239.031H545.373C544.346 239.03 543.361 238.621 542.635 237.895C541.909 237.168 541.501 236.184 541.499 235.156V191.817C541.501 190.79 541.909 189.805 542.635 189.078C543.361 188.352 544.346 187.944 545.373 187.942H608.205C609.232 187.944 610.216 188.352 610.942 189.078C611.668 189.805 612.077 190.79 612.078 191.817Z" fill="#A8A8A8" fill-opacity="0.5"/>
<path d="M609.607 191.741V235.233C609.606 235.549 609.48 235.853 609.257 236.077C609.033 236.301 608.729 236.427 608.413 236.427H545.165C544.848 236.427 544.544 236.301 544.321 236.077C544.097 235.853 543.971 235.549 543.971 235.233V191.741C543.971 191.424 544.097 191.12 544.321 190.896C544.544 190.673 544.848 190.547 545.165 190.546H608.413C608.729 190.547 609.033 190.673 609.257 190.896C609.48 191.12 609.606 191.424 609.607 191.741Z" fill="white"/>
<path d="M602.64 197.448H550.937V198.516H602.64V197.448Z" fill="#F9DAFF"/>
<path d="M602.64 200.828H550.937V201.896H602.64V200.828Z" fill="#F9DAFF"/>
<path d="M602.64 204.209H550.937V205.276H602.64V204.209Z" fill="#F9DAFF"/>
<path d="M602.64 209.572H550.937V210.64H602.64V209.572Z" fill="#A8A8A8" fill-opacity="0.5"/>
<path d="M602.64 212.953H550.937V214.02H602.64V212.953Z" fill="#A8A8A8" fill-opacity="0.5"/>
<path d="M602.64 216.333H550.937V217.401H602.64V216.333Z" fill="#A8A8A8" fill-opacity="0.5"/>
<path d="M602.64 221.697H550.937V222.764H602.64V221.697Z" fill="#A8A8A8" fill-opacity="0.5"/>
<path d="M602.64 225.077H550.937V226.145H602.64V225.077Z" fill="#A8A8A8" fill-opacity="0.5"/>
<path d="M602.64 228.458H550.937V229.525H602.64V228.458Z" fill="#A8A8A8" fill-opacity="0.5"/>
<path d="M529.647 280.698L523.078 282.035L529.833 278.431C530.085 272.039 528.265 265.282 528.265 265.282C528.265 265.282 514.105 268.459 510.024 275.216C505.944 281.973 508.535 286.759 513.489 289.752C518.442 292.745 523.883 292.812 527.963 286.055C528.884 284.403 529.457 282.58 529.647 280.698Z" fill="#DEFFD9" fill-opacity="0.7"/>
<path d="M521.865 281.59L521.664 281.923C519.306 285.782 516.829 288.409 514.264 289.762C514.227 289.782 514.189 289.8 514.152 289.82L514.062 289.646L513.977 289.478C516.784 288.04 519.248 285.097 521.305 281.731C521.372 281.623 521.44 281.514 521.506 281.402C522.364 279.969 523.15 278.471 523.858 276.981C523.914 276.866 523.969 276.749 524.024 276.632C524.949 274.661 525.738 272.721 526.38 271.009C526.426 270.888 526.47 270.766 526.513 270.646C527.588 267.745 528.22 265.554 528.357 265.067C528.374 265.008 528.383 264.975 528.385 264.968L528.569 265.018L528.572 265.017L528.757 265.068C528.754 265.076 528.726 265.187 528.666 265.389C528.448 266.149 527.836 268.198 526.874 270.808C526.83 270.926 526.786 271.047 526.74 271.168C526.221 272.558 525.607 274.091 524.905 275.665C524.729 276.06 524.551 276.448 524.371 276.828C524.318 276.946 524.262 277.064 524.207 277.179C523.441 278.789 522.661 280.259 521.865 281.59Z" fill="white"/>
<path d="M526.874 270.808C526.755 270.756 526.634 270.703 526.513 270.646C526.185 270.491 525.865 270.32 525.555 270.132C524.23 269.334 523.102 268.25 522.252 266.958C522.13 267.003 522.008 267.049 521.884 267.095C522.769 268.467 523.957 269.619 525.356 270.462C525.687 270.662 526.029 270.845 526.38 271.009C526.499 271.065 526.62 271.118 526.74 271.168C527.731 271.588 528.78 271.855 529.85 271.96C529.834 271.827 529.819 271.696 529.804 271.568C528.795 271.46 527.808 271.204 526.874 270.808Z" fill="white"/>
<path d="M524.371 276.828C524.254 276.766 524.138 276.7 524.024 276.631C523.988 276.612 523.952 276.59 523.918 276.569C522.484 275.703 521.281 274.503 520.411 273.071C519.541 271.639 519.03 270.018 518.922 268.346C518.797 268.403 518.672 268.46 518.548 268.52C518.683 270.227 519.222 271.878 520.121 273.335C521.02 274.792 522.253 276.014 523.718 276.899C523.765 276.927 523.811 276.955 523.858 276.981C523.974 277.049 524.09 277.115 524.207 277.178C526.021 278.152 528.077 278.581 530.129 278.417C530.135 278.287 530.141 278.158 530.146 278.028C528.145 278.199 526.138 277.781 524.371 276.828Z" fill="white"/>
<path d="M521.865 281.59C521.743 281.53 521.624 281.467 521.506 281.402C521.379 281.332 521.253 281.261 521.13 281.186C519.204 280.02 517.709 278.261 516.866 276.173C516.024 274.085 515.88 271.78 516.457 269.604C516.302 269.693 516.148 269.78 515.996 269.87C515.491 272.084 515.696 274.401 516.581 276.491C517.467 278.582 518.989 280.34 520.931 281.516C521.054 281.591 521.179 281.664 521.305 281.731C521.424 281.798 521.543 281.861 521.664 281.923C524.104 283.149 526.919 283.401 529.539 282.628C529.578 282.485 529.611 282.341 529.645 282.195C527.072 283.013 524.281 282.796 521.865 281.59Z" fill="white"/>
<path d="M537.575 356.246H494.249C493.222 356.245 492.238 355.836 491.512 355.11C490.785 354.383 490.377 353.399 490.376 352.371V289.52C490.377 288.492 490.785 287.507 491.512 286.781C492.238 286.055 493.222 285.646 494.249 285.645H537.575C538.602 285.646 539.586 286.055 540.312 286.781C541.039 287.507 541.447 288.492 541.448 289.52V352.371C541.447 353.399 541.039 354.383 540.312 355.11C539.586 355.836 538.602 356.245 537.575 356.246Z" fill="#A8A8A8" fill-opacity="0.5"/>
<g filter="url(#filter0_d)">
<path d="M537.651 353.774H494.173C493.856 353.773 493.553 353.648 493.329 353.424C493.105 353.2 492.979 352.896 492.979 352.579V289.311C492.979 288.995 493.105 288.691 493.329 288.467C493.553 288.243 493.856 288.117 494.173 288.117H537.651C537.968 288.117 538.271 288.243 538.495 288.467C538.719 288.691 538.845 288.995 538.845 289.311V352.579C538.845 352.896 538.719 353.2 538.495 353.424C538.271 353.648 537.968 353.773 537.651 353.774Z" fill="white"/>
<path d="M537.651 353.274H494.173C493.989 353.274 493.813 353.2 493.683 353.07C493.552 352.94 493.479 352.763 493.479 352.579V289.312C493.479 289.127 493.552 288.951 493.683 288.821C493.813 288.691 493.989 288.617 494.173 288.617H537.651C537.835 288.617 538.011 288.691 538.141 288.821C538.272 288.951 538.345 289.128 538.345 289.312V352.579C538.345 352.763 538.272 352.94 538.141 353.07C538.011 353.2 537.835 353.274 537.651 353.274Z" stroke="black" stroke-opacity="0.5"/>
</g>
<path d="M530.272 321.585H501.552V322.652H530.272V321.585Z" fill="#E4E4E4"/>
<path d="M530.272 324.965H501.552V326.033H530.272V324.965Z" fill="#E4E4E4"/>
<path d="M530.272 328.346H501.552V329.413H530.272V328.346Z" fill="#E4E4E4"/>
<path d="M530.272 335.753H501.552V336.82H530.272V335.753Z" fill="#E4E4E4"/>
<path d="M530.272 339.133H501.552V340.201H530.272V339.133Z" fill="#E4E4E4"/>
<path d="M530.272 342.514H501.552V343.581H530.272V342.514Z" fill="#E4E4E4"/>
<path d="M520.86 297.137L509.61 301.49L513.81 312.354L525.06 308.002L520.86 297.137Z" fill="#1B1B1B" fill-opacity="0.5"/>
<path d="M511.083 311.958L506.532 300.188L518.708 295.477L523.259 307.247L511.083 311.958ZM506.995 300.393L511.287 311.495L522.796 307.043L518.504 295.94L506.995 300.393Z" fill="#3F3D56"/>
<path d="M681.599 318.941L681.065 326.492L684.109 318.401C691.224 317.184 699.05 318.234 699.05 318.234C699.05 318.234 697.567 334.551 690.604 340.108C683.641 345.664 677.907 343.463 673.834 338.355C669.761 333.247 668.89 327.167 675.853 321.61C677.403 320.374 679.412 319.521 681.599 318.941Z" fill="#DEFFD9" fill-opacity="0.7"/>
<path d="M681.741 327.784L681.397 328.058C677.424 331.262 674.848 334.419 673.709 337.489C673.692 337.533 673.678 337.578 673.66 337.623L673.868 337.699L674.069 337.769C675.268 334.415 678.2 331.227 681.665 328.432C681.775 328.341 681.888 328.248 682.003 328.159C683.48 326.989 685.042 325.89 686.605 324.879C686.726 324.8 686.849 324.721 686.972 324.642C689.042 323.318 691.097 322.151 692.918 321.182C693.047 321.113 693.177 321.045 693.305 320.979C696.394 319.351 698.752 318.323 699.277 318.099C699.34 318.071 699.376 318.056 699.384 318.053L699.301 317.855L699.302 317.851L699.217 317.652C699.209 317.655 699.089 317.704 698.871 317.8C698.053 318.155 695.85 319.14 693.071 320.599C692.946 320.665 692.816 320.732 692.687 320.801C691.209 321.586 689.583 322.497 687.925 323.514C687.508 323.769 687.1 324.025 686.702 324.282C686.577 324.359 686.454 324.438 686.334 324.517C684.644 325.61 683.113 326.699 681.741 327.784Z" fill="white"/>
<path d="M691.792 317.43C691.647 317.432 691.498 317.434 691.346 317.436C691.62 318.619 692.073 319.754 692.687 320.802C692.761 320.929 692.838 321.057 692.918 321.182C693.153 321.55 693.407 321.907 693.68 322.248C694.828 323.691 696.29 324.852 697.955 325.643C697.988 325.496 698.022 325.353 698.055 325.21C696.485 324.448 695.106 323.343 694.02 321.977C693.764 321.657 693.526 321.324 693.305 320.979C693.223 320.853 693.146 320.725 693.071 320.599C692.491 319.611 692.06 318.544 691.792 317.43Z" fill="white"/>
<path d="M684.514 317.992C684.369 318.016 684.225 318.042 684.082 318.068C684.197 320.389 684.979 322.628 686.333 324.517C686.422 324.639 686.512 324.759 686.605 324.879C686.641 324.928 686.679 324.975 686.717 325.023C687.922 326.534 689.47 327.736 691.231 328.529C692.993 329.322 694.918 329.685 696.848 329.585C696.897 329.438 696.943 329.29 696.989 329.142C695.102 329.265 693.214 328.931 691.485 328.166C689.755 327.402 688.236 326.23 687.057 324.752C687.029 324.716 686.999 324.679 686.972 324.642C686.879 324.524 686.789 324.404 686.702 324.282C685.376 322.443 684.616 320.257 684.514 317.992Z" fill="white"/>
<path d="M679.925 319.162C679.767 319.222 679.61 319.28 679.456 319.345C678.975 322.39 679.669 325.505 681.397 328.058C681.484 328.184 681.572 328.308 681.665 328.432C681.758 328.563 681.858 328.692 681.96 328.819C683.56 330.821 685.749 332.268 688.218 332.954C690.686 333.639 693.308 333.53 695.711 332.64C695.79 332.457 695.865 332.272 695.942 332.086C693.591 333.05 690.991 333.226 688.532 332.588C686.073 331.95 683.886 330.533 682.3 328.548C682.198 328.421 682.1 328.291 682.003 328.159C681.913 328.036 681.825 327.912 681.741 327.784C680.038 325.256 679.386 322.163 679.925 319.162Z" fill="white"/>
<path d="M678.238 309.138V352.477C678.237 353.504 677.829 354.489 677.103 355.215C676.376 355.942 675.392 356.35 674.365 356.352H611.533C610.506 356.35 609.522 355.942 608.795 355.215C608.069 354.489 607.661 353.504 607.66 352.477V309.138C607.661 308.11 608.069 307.126 608.795 306.399C609.522 305.673 610.506 305.264 611.533 305.263H674.365C675.392 305.264 676.376 305.673 677.103 306.399C677.829 307.126 678.237 308.11 678.238 309.138Z" fill="#A8A8A8" fill-opacity="0.5"/>
<path d="M675.767 309.061V352.553C675.767 352.87 675.641 353.174 675.417 353.398C675.193 353.621 674.89 353.747 674.573 353.748H611.325C611.008 353.747 610.705 353.621 610.481 353.398C610.257 353.174 610.131 352.87 610.131 352.553V309.061C610.131 308.745 610.257 308.441 610.481 308.217C610.705 307.993 611.008 307.867 611.325 307.867H674.573C674.89 307.867 675.193 307.993 675.417 308.217C675.641 308.441 675.767 308.745 675.767 309.061Z" fill="white"/>
<path d="M668.8 314.769H617.098V315.836H668.8V314.769Z" fill="#C6DDFF" fill-opacity="0.72"/>
<path d="M668.8 318.149H617.098V319.217H668.8V318.149Z" fill="#C6DDFF" fill-opacity="0.72"/>
<path d="M668.8 321.53H617.098V322.597H668.8V321.53Z" fill="#C6DDFF" fill-opacity="0.72"/>
<path d="M668.8 326.893H617.098V327.961H668.8V326.893Z" fill="#A8A8A8" fill-opacity="0.5"/>
<path d="M668.8 330.274H617.098V331.341H668.8V330.274Z" fill="#A8A8A8" fill-opacity="0.5"/>
<path d="M668.8 333.654H617.098V334.722H668.8V333.654Z" fill="#A8A8A8" fill-opacity="0.5"/>
<path d="M668.8 339.018H617.098V340.085H668.8V339.018Z" fill="#A8A8A8" fill-opacity="0.5"/>
<path d="M668.8 342.398H617.098V343.466H668.8V342.398Z" fill="#A8A8A8" fill-opacity="0.5"/>
<path d="M668.8 345.778H617.098V346.846H668.8V345.778Z" fill="#A8A8A8" fill-opacity="0.5"/>
<path d="M71.9058 501.335L65.3362 502.672L72.092 499.067C72.3441 492.675 70.5232 485.919 70.5232 485.919C70.5232 485.919 56.3631 489.095 52.283 495.852C48.2028 502.609 50.7938 507.395 55.7475 510.388C60.7011 513.381 66.1415 513.448 70.2217 506.691C71.1428 505.039 71.716 503.216 71.9058 501.335Z" fill="#DEFFD9" fill-opacity="0.7"/>
<path d="M64.1231 502.226L63.922 502.559C61.5645 506.419 59.0877 509.045 56.5226 510.398C56.4856 510.419 56.4479 510.436 56.4108 510.457L56.3202 510.283L56.2351 510.114C59.0429 508.676 61.5061 505.733 63.5632 502.367C63.6306 502.259 63.699 502.15 63.764 502.038C64.6223 500.606 65.4081 499.107 66.1163 497.618C66.1721 497.503 66.2273 497.385 66.2824 497.268C67.207 495.297 67.9961 493.357 68.6383 491.645C68.6842 491.524 68.7285 491.403 68.7718 491.283C69.8467 488.381 70.4787 486.191 70.6152 485.704C70.6329 485.645 70.6416 485.612 70.6439 485.604L70.8274 485.654L70.83 485.653L71.0152 485.705C71.0128 485.712 70.9841 485.823 70.9247 486.026C70.7068 486.785 70.0947 488.835 69.1329 491.445C69.089 491.562 69.0447 491.684 68.9988 491.805C68.4791 493.194 67.8659 494.728 67.1631 496.301C66.9872 496.697 66.8094 497.085 66.6296 497.464C66.5761 497.583 66.5209 497.7 66.4651 497.815C65.6998 499.425 64.9191 500.896 64.1231 502.226Z" fill="white"/>
<path d="M69.1328 491.445C69.0134 491.393 68.8924 491.34 68.7717 491.283C68.4436 491.128 68.1237 490.956 67.8131 490.769C66.4888 489.971 65.3603 488.886 64.5107 487.594C64.3887 487.64 64.2668 487.685 64.1421 487.731C65.0279 489.104 66.2154 490.255 67.614 491.098C67.9455 491.299 68.2874 491.481 68.6382 491.645C68.7572 491.701 68.8783 491.754 68.9987 491.805C69.9893 492.225 71.0379 492.492 72.1086 492.597C72.0925 492.463 72.0771 492.332 72.0622 492.204C71.0537 492.097 70.0666 491.841 69.1328 491.445Z" fill="white"/>
<path d="M66.6296 497.464C66.5119 497.402 66.3961 497.337 66.2824 497.268C66.2468 497.249 66.2105 497.227 66.1759 497.206C64.7421 496.339 63.5389 495.139 62.669 493.707C61.7991 492.275 61.2883 490.654 61.18 488.982C61.0554 489.039 60.9307 489.097 60.8067 489.157C60.9411 490.864 61.4802 492.514 62.3793 493.971C63.2784 495.428 64.5116 496.65 65.9768 497.536C66.0229 497.563 66.0691 497.591 66.1162 497.618C66.2326 497.686 66.3483 497.751 66.4651 497.815C68.2794 498.788 70.3356 499.218 72.3878 499.053C72.3938 498.924 72.3998 498.795 72.4041 498.665C70.4035 498.835 68.3967 498.418 66.6296 497.464Z" fill="white"/>
<path d="M64.1232 502.226C64.0018 502.166 63.8825 502.103 63.7641 502.038C63.6375 501.969 63.5119 501.897 63.3882 501.823C61.4629 500.656 59.967 498.897 59.1246 496.809C58.2821 494.721 58.1384 492.417 58.715 490.24C58.5602 490.329 58.4064 490.416 58.2548 490.507C57.7493 492.72 57.954 495.037 58.8398 497.128C59.7256 499.218 61.2474 500.976 63.1891 502.152C63.3128 502.227 63.4374 502.3 63.5633 502.367C63.6824 502.435 63.8017 502.498 63.9221 502.559C66.3628 503.785 69.178 504.037 71.7976 503.265C71.8366 503.122 71.8698 502.977 71.9039 502.832C69.3303 503.649 66.5394 503.432 64.1232 502.226Z" fill="white"/>
<path d="M79.8333 576.882H36.5076C35.4807 576.881 34.4962 576.473 33.77 575.746C33.0439 575.02 32.6355 574.035 32.6343 573.008V510.156C32.6355 509.129 33.0439 508.144 33.77 507.418C34.4962 506.691 35.4807 506.283 36.5076 506.281H79.8333C80.8602 506.283 81.8447 506.691 82.5709 507.418C83.297 508.144 83.7054 509.129 83.7066 510.156V573.008C83.7054 574.035 83.297 575.02 82.5709 575.746C81.8447 576.473 80.8602 576.881 79.8333 576.882Z" fill="#A8A8A8" fill-opacity="0.5"/>
<g filter="url(#filter1_d)">
<path d="M79.9096 574.41H36.4313C36.1148 574.41 35.8113 574.284 35.5874 574.06C35.3636 573.836 35.2377 573.533 35.2373 573.216V509.948C35.2377 509.631 35.3636 509.328 35.5874 509.104C35.8113 508.88 36.1148 508.754 36.4313 508.753H79.9096C80.2261 508.754 80.5296 508.88 80.7534 509.104C80.9773 509.328 81.1032 509.631 81.1035 509.948V573.216C81.1032 573.533 80.9773 573.836 80.7534 574.06C80.5296 574.284 80.2261 574.41 79.9096 574.41Z" fill="white"/>
</g>
<path d="M72.5304 542.221H43.8106V543.289H72.5304V542.221Z" fill="#E4E4E4"/>
<path d="M72.5304 545.602H43.8106V546.669H72.5304V545.602Z" fill="#E4E4E4"/>
<path d="M72.5304 548.982H43.8106V550.05H72.5304V548.982Z" fill="#E4E4E4"/>
<path d="M72.5304 556.389H43.8106V557.457H72.5304V556.389Z" fill="#E4E4E4"/>
<path d="M72.5304 559.77H43.8106V560.837H72.5304V559.77Z" fill="#E4E4E4"/>
<path d="M72.5304 563.15H43.8106V564.218H72.5304V563.15Z" fill="#E4E4E4"/>
<path d="M63.1185 517.774L51.8682 522.126L56.0686 532.991L67.3189 528.638L63.1185 517.774Z" fill="#666666" fill-opacity="0.5"/>
<path d="M53.3411 532.594L48.7905 520.825L60.9666 516.114L65.5171 527.884L53.3411 532.594ZM49.2531 521.029L53.5457 532.131L65.0546 527.679L60.7621 516.577L49.2531 521.029Z" fill="#3F3D56"/>
<path d="M110.51 353.175L109.975 360.725L113.019 352.635C120.134 351.417 127.96 352.468 127.96 352.468C127.96 352.468 126.477 368.785 119.514 374.341C112.551 379.898 106.817 377.697 102.744 372.589C98.6709 367.481 97.8001 361.4 104.763 355.844C106.313 354.607 108.322 353.754 110.51 353.175Z" fill="#DEFFD9" fill-opacity="0.7"/>
<path d="M110.65 362.018L110.307 362.292C106.334 365.496 103.758 368.653 102.619 371.723C102.602 371.767 102.587 371.812 102.57 371.856L102.778 371.932L102.979 372.003C104.177 368.649 107.11 365.461 110.575 362.665C110.685 362.574 110.798 362.482 110.913 362.393C112.39 361.222 113.952 360.123 115.515 359.112C115.635 359.033 115.759 358.954 115.882 358.875C117.952 357.552 120.007 356.385 121.828 355.415C121.957 355.346 122.086 355.279 122.214 355.213C125.304 353.585 127.662 352.557 128.187 352.333C128.25 352.304 128.286 352.29 128.294 352.286L128.211 352.088V352.085L128.127 351.885C128.119 351.889 127.999 351.937 127.781 352.034C126.963 352.389 124.76 353.374 121.98 354.832C121.855 354.899 121.726 354.966 121.597 355.035C120.119 355.82 118.493 356.731 116.835 357.748C116.418 358.003 116.01 358.258 115.612 358.515C115.487 358.593 115.364 358.671 115.243 358.751C113.554 359.843 112.023 360.932 110.65 362.018Z" fill="white"/>
<path d="M120.702 351.664C120.556 351.666 120.408 351.668 120.256 351.669C120.53 352.853 120.982 353.987 121.597 355.035C121.671 355.162 121.748 355.29 121.828 355.415C122.063 355.784 122.317 356.14 122.59 356.482C123.738 357.924 125.2 359.085 126.865 359.876C126.898 359.73 126.932 359.587 126.965 359.444C125.395 358.681 124.016 357.577 122.93 356.211C122.674 355.891 122.436 355.557 122.215 355.213C122.133 355.086 122.056 354.958 121.98 354.832C121.401 353.845 120.97 352.777 120.702 351.664Z" fill="white"/>
<path d="M113.424 352.226C113.279 352.25 113.135 352.276 112.992 352.301C113.107 354.623 113.889 356.862 115.243 358.751C115.332 358.872 115.422 358.992 115.515 359.112C115.551 359.161 115.589 359.209 115.627 359.257C116.832 360.767 118.38 361.969 120.141 362.763C121.903 363.556 123.828 363.918 125.758 363.819C125.807 363.671 125.853 363.523 125.899 363.375C124.012 363.499 122.124 363.164 120.394 362.4C118.665 361.635 117.146 360.464 115.967 358.985C115.939 358.95 115.909 358.912 115.882 358.875C115.789 358.758 115.698 358.638 115.612 358.515C114.286 356.677 113.526 354.491 113.424 352.226Z" fill="white"/>
<path d="M108.835 353.396C108.677 353.455 108.52 353.513 108.366 353.578C107.885 356.624 108.579 359.739 110.307 362.292C110.394 362.418 110.482 362.542 110.575 362.665C110.668 362.797 110.768 362.925 110.87 363.053C112.47 365.055 114.659 366.501 117.128 367.187C119.596 367.873 122.218 367.763 124.621 366.873C124.7 366.69 124.775 366.506 124.852 366.319C122.501 367.283 119.901 367.459 117.442 366.822C114.983 366.184 112.796 364.767 111.21 362.782C111.108 362.654 111.01 362.524 110.913 362.392C110.823 362.269 110.735 362.145 110.651 362.018C108.948 359.489 108.296 356.397 108.835 353.396Z" fill="white"/>
<path d="M107.148 343.371V386.711C107.147 387.738 106.739 388.723 106.012 389.449C105.286 390.175 104.302 390.584 103.275 390.585H40.4431C39.4162 390.584 38.4317 390.175 37.7056 389.449C36.9795 388.723 36.571 387.738 36.5698 386.711V343.371C36.571 342.344 36.9795 341.359 37.7056 340.633C38.4317 339.906 39.4162 339.498 40.4431 339.497H103.275C104.302 339.498 105.286 339.906 106.012 340.633C106.739 341.359 107.147 342.344 107.148 343.371Z" fill="#A8A8A8" fill-opacity="0.5"/>
<path d="M104.677 343.295V386.787C104.677 387.104 104.551 387.407 104.327 387.631C104.103 387.855 103.799 387.981 103.483 387.981H40.235C39.9185 387.981 39.615 387.855 39.3911 387.631C39.1673 387.407 39.0414 387.104 39.041 386.787V343.295C39.0414 342.978 39.1673 342.675 39.3911 342.451C39.615 342.227 39.9185 342.101 40.235 342.101H103.483C103.799 342.101 104.103 342.227 104.327 342.451C104.551 342.675 104.677 342.978 104.677 343.295Z" fill="white"/>
<path d="M97.7106 349.002H46.0078V350.07H97.7106V349.002Z" fill="#C6DDFF" fill-opacity="0.72"/>
<path d="M97.7107 352.383H46.0078V353.45H97.7107V352.383Z" fill="#C6DDFF" fill-opacity="0.72"/>
<path d="M97.7107 355.763H46.0078V356.831H97.7107V355.763Z" fill="#C6DDFF" fill-opacity="0.72"/>
<path d="M97.7106 361.127H46.0078V362.194H97.7106V361.127Z" fill="#A8A8A8" fill-opacity="0.5"/>
<path d="M97.7107 364.507H46.0078V365.575H97.7107V364.507Z" fill="#A8A8A8" fill-opacity="0.5"/>
<path d="M97.7107 367.888H46.0078V368.955H97.7107V367.888Z" fill="#A8A8A8" fill-opacity="0.5"/>
<path d="M97.7106 373.251H46.0078V374.319H97.7106V373.251Z" fill="#A8A8A8" fill-opacity="0.5"/>
<path d="M97.7107 376.632H46.0078V377.699H97.7107V376.632Z" fill="#A8A8A8" fill-opacity="0.5"/>
<path d="M97.7107 380.012H46.0078V381.079H97.7107V380.012Z" fill="#A8A8A8" fill-opacity="0.5"/>
<path d="M287.283 152.573C294.619 152.573 300.565 146.625 300.565 139.287C300.565 131.949 294.619 126 287.283 126C279.947 126 274 131.949 274 139.287C274 146.625 279.947 152.573 287.283 152.573Z" fill="#3A3A3A" fill-opacity="0.12"/>
<path d="M280.399 138.044C280.086 138.045 279.787 138.171 279.566 138.393C279.346 138.614 279.222 138.914 279.222 139.227C279.222 139.54 279.346 139.84 279.566 140.061C279.787 140.283 280.086 140.409 280.399 140.41H284.826C285.208 140.411 285.575 140.563 285.845 140.833C286.115 141.103 286.267 141.469 286.267 141.852V146.28C286.268 146.594 286.393 146.894 286.614 147.116C286.836 147.337 287.137 147.461 287.45 147.461C287.763 147.461 288.064 147.337 288.286 147.116C288.507 146.894 288.632 146.594 288.633 146.28V141.851C288.633 141.469 288.785 141.103 289.055 140.833C289.325 140.563 289.692 140.411 290.074 140.41H294.501C294.814 140.409 295.113 140.283 295.333 140.061C295.554 139.84 295.678 139.54 295.678 139.227C295.678 138.914 295.554 138.614 295.333 138.393C295.113 138.171 294.814 138.045 294.501 138.044H290.074C289.692 138.043 289.325 137.891 289.055 137.621C288.785 137.351 288.633 136.985 288.633 136.602V132.174C288.632 131.86 288.507 131.56 288.286 131.338C288.064 131.117 287.763 130.993 287.45 130.993C287.137 130.993 286.836 131.117 286.614 131.338C286.393 131.56 286.268 131.86 286.267 132.174V136.602C286.267 136.985 286.115 137.351 285.845 137.621C285.575 137.891 285.208 138.043 284.826 138.044H280.399Z" fill="white"/>
<path d="M137.283 568.177C144.619 568.177 150.565 562.229 150.565 554.891C150.565 547.553 144.619 541.604 137.283 541.604C129.947 541.604 124 547.553 124 554.891C124 562.229 129.947 568.177 137.283 568.177Z" fill="#3A3A3A" fill-opacity="0.12"/>
<path d="M130.399 553.648C130.086 553.649 129.787 553.775 129.566 553.997C129.346 554.218 129.222 554.518 129.222 554.831C129.222 555.144 129.346 555.444 129.566 555.665C129.787 555.887 130.086 556.013 130.399 556.014H134.826C135.208 556.015 135.575 556.167 135.845 556.437C136.115 556.707 136.267 557.073 136.267 557.456V561.884C136.268 562.198 136.393 562.498 136.614 562.72C136.836 562.941 137.137 563.065 137.45 563.065C137.763 563.065 138.064 562.941 138.286 562.72C138.507 562.498 138.632 562.198 138.633 561.884V557.455C138.633 557.073 138.785 556.707 139.055 556.437C139.325 556.167 139.692 556.015 140.074 556.014H144.501C144.814 556.013 145.113 555.887 145.333 555.665C145.554 555.444 145.678 555.144 145.678 554.831C145.678 554.518 145.554 554.218 145.333 553.997C145.113 553.775 144.814 553.649 144.501 553.648H140.074C139.692 553.647 139.325 553.495 139.055 553.225C138.785 552.955 138.633 552.589 138.633 552.206V547.778C138.632 547.464 138.507 547.164 138.286 546.942C138.064 546.721 137.763 546.597 137.45 546.597C137.137 546.597 136.836 546.721 136.614 546.942C136.393 547.164 136.268 547.464 136.267 547.778V552.206C136.267 552.589 136.115 552.955 135.845 553.225C135.575 553.495 135.208 553.647 134.826 553.648H130.399Z" fill="white"/>
<path d="M498.283 247.177C505.619 247.177 511.565 241.229 511.565 233.891C511.565 226.553 505.619 220.604 498.283 220.604C490.947 220.604 485 226.553 485 233.891C485 241.229 490.947 247.177 498.283 247.177Z" fill="#3A3A3A" fill-opacity="0.12"/>
<path d="M491.399 232.648C491.086 232.649 490.787 232.775 490.566 232.997C490.346 233.218 490.222 233.518 490.222 233.831C490.222 234.144 490.346 234.444 490.566 234.665C490.787 234.887 491.086 235.013 491.399 235.014H495.826C496.208 235.015 496.575 235.167 496.845 235.437C497.115 235.707 497.267 236.073 497.267 236.456V240.884C497.268 241.198 497.393 241.498 497.614 241.72C497.836 241.941 498.137 242.065 498.45 242.065C498.763 242.065 499.064 241.941 499.286 241.72C499.507 241.498 499.632 241.198 499.633 240.884V236.455C499.633 236.073 499.785 235.707 500.055 235.437C500.325 235.167 500.692 235.015 501.074 235.014H505.501C505.814 235.013 506.113 234.887 506.333 234.665C506.554 234.444 506.678 234.144 506.678 233.831C506.678 233.518 506.554 233.218 506.333 232.997C506.113 232.775 505.814 232.649 505.501 232.648H501.074C500.692 232.647 500.325 232.495 500.055 232.225C499.785 231.955 499.633 231.589 499.633 231.206V226.778C499.632 226.464 499.507 226.164 499.286 225.942C499.064 225.721 498.763 225.597 498.45 225.597C498.137 225.597 497.836 225.721 497.614 225.942C497.393 226.164 497.268 226.464 497.267 226.778V231.206C497.267 231.589 497.115 231.955 496.845 232.225C496.575 232.495 496.208 232.647 495.826 232.648H491.399Z" fill="white"/>
<path d="M71.283 463.177C78.619 463.177 84.565 457.229 84.565 449.891C84.565 442.553 78.619 436.604 71.283 436.604C63.947 436.604 58 442.553 58 449.891C58 457.229 63.947 463.177 71.283 463.177Z" fill="#3A3A3A" fill-opacity="0.12"/>
<path d="M64.399 448.648C64.086 448.649 63.787 448.775 63.566 448.997C63.346 449.218 63.222 449.518 63.222 449.831C63.222 450.144 63.346 450.444 63.566 450.665C63.787 450.887 64.086 451.013 64.399 451.014H68.826C69.208 451.015 69.575 451.167 69.845 451.437C70.115 451.707 70.267 452.073 70.267 452.456V456.884C70.268 457.198 70.393 457.498 70.614 457.72C70.836 457.941 71.137 458.065 71.45 458.065C71.763 458.065 72.064 457.941 72.286 457.72C72.507 457.498 72.632 457.198 72.633 456.884V452.455C72.633 452.073 72.785 451.707 73.055 451.437C73.325 451.167 73.692 451.015 74.074 451.014H78.501C78.814 451.013 79.113 450.887 79.333 450.665C79.554 450.444 79.678 450.144 79.678 449.831C79.678 449.518 79.554 449.218 79.333 448.997C79.113 448.775 78.814 448.649 78.501 448.648H74.074C73.692 448.647 73.325 448.495 73.055 448.225C72.785 447.955 72.633 447.589 72.633 447.206V442.778C72.632 442.464 72.507 442.164 72.286 441.942C72.064 441.721 71.763 441.597 71.45 441.597C71.137 441.597 70.836 441.721 70.614 441.942C70.393 442.164 70.268 442.464 70.267 442.778V447.206C70.267 447.589 70.115 447.955 69.845 448.225C69.575 448.495 69.208 448.647 68.826 448.648H64.399Z" fill="white"/>
<path d="M507.283 571.177C514.619 571.177 520.565 565.229 520.565 557.891C520.565 550.553 514.619 544.604 507.283 544.604C499.947 544.604 494 550.553 494 557.891C494 565.229 499.947 571.177 507.283 571.177Z" fill="#3A3A3A" fill-opacity="0.12"/>
<path d="M500.399 556.648C500.086 556.649 499.787 556.775 499.566 556.997C499.346 557.218 499.222 557.518 499.222 557.831C499.222 558.144 499.346 558.444 499.566 558.665C499.787 558.887 500.086 559.013 500.399 559.014H504.826C505.208 559.015 505.575 559.167 505.845 559.437C506.115 559.707 506.267 560.073 506.267 560.456V564.884C506.268 565.198 506.393 565.498 506.614 565.72C506.836 565.941 507.137 566.065 507.45 566.065C507.763 566.065 508.064 565.941 508.286 565.72C508.507 565.498 508.632 565.198 508.633 564.884V560.455C508.633 560.073 508.785 559.707 509.055 559.437C509.325 559.167 509.692 559.015 510.074 559.014H514.501C514.814 559.013 515.113 558.887 515.333 558.665C515.554 558.444 515.678 558.144 515.678 557.831C515.678 557.518 515.554 557.218 515.333 556.997C515.113 556.775 514.814 556.649 514.501 556.648H510.074C509.692 556.647 509.325 556.495 509.055 556.225C508.785 555.955 508.633 555.589 508.633 555.206V550.778C508.632 550.464 508.507 550.164 508.286 549.942C508.064 549.721 507.763 549.597 507.45 549.597C507.137 549.597 506.836 549.721 506.614 549.942C506.393 550.164 506.268 550.464 506.267 550.778V555.206C506.267 555.589 506.115 555.955 505.845 556.225C505.575 556.495 505.208 556.647 504.826 556.648H500.399Z" fill="white"/>
<path d="M696.283 245.177C703.619 245.177 709.565 239.229 709.565 231.891C709.565 224.553 703.619 218.604 696.283 218.604C688.947 218.604 683 224.553 683 231.891C683 239.229 688.947 245.177 696.283 245.177Z" fill="#3A3A3A" fill-opacity="0.12"/>
<path d="M689.399 230.648C689.086 230.649 688.787 230.775 688.566 230.997C688.346 231.218 688.222 231.518 688.222 231.831C688.222 232.144 688.346 232.444 688.566 232.665C688.787 232.887 689.086 233.013 689.399 233.014H693.826C694.208 233.015 694.575 233.167 694.845 233.437C695.115 233.707 695.267 234.073 695.267 234.456V238.884C695.268 239.198 695.393 239.498 695.614 239.72C695.836 239.941 696.137 240.065 696.45 240.065C696.763 240.065 697.064 239.941 697.286 239.72C697.507 239.498 697.632 239.198 697.633 238.884V234.455C697.633 234.073 697.785 233.707 698.055 233.437C698.325 233.167 698.692 233.015 699.074 233.014H703.501C703.814 233.013 704.113 232.887 704.333 232.665C704.554 232.444 704.678 232.144 704.678 231.831C704.678 231.518 704.554 231.218 704.333 230.997C704.113 230.775 703.814 230.649 703.501 230.648H699.074C698.692 230.647 698.325 230.495 698.055 230.225C697.785 229.955 697.633 229.589 697.633 229.206V224.778C697.632 224.464 697.507 224.164 697.286 223.942C697.064 223.721 696.763 223.597 696.45 223.597C696.137 223.597 695.836 223.721 695.614 223.942C695.393 224.164 695.268 224.464 695.267 224.778V229.206C695.267 229.589 695.115 229.955 694.845 230.225C694.575 230.495 694.208 230.647 693.826 230.648H689.399Z" fill="white" fill-opacity="0.12"/>
<path d="M588.283 93.1771C595.619 93.1771 601.565 87.2291 601.565 79.8911C601.565 72.5531 595.619 66.6041 588.283 66.6041C580.947 66.6041 575 72.5531 575 79.8911C575 87.2291 580.947 93.1771 588.283 93.1771Z" fill="#3A3A3A" fill-opacity="0.12"/>
<path d="M581.399 78.6481C581.086 78.6491 580.787 78.7751 580.566 78.9971C580.346 79.2181 580.222 79.5181 580.222 79.8311C580.222 80.1441 580.346 80.4441 580.566 80.6651C580.787 80.8871 581.086 81.0131 581.399 81.0141H585.826C586.208 81.0151 586.575 81.1671 586.845 81.4371C587.115 81.7071 587.267 82.0731 587.267 82.4561V86.8841C587.268 87.1981 587.393 87.4981 587.614 87.7201C587.836 87.9411 588.137 88.0651 588.45 88.0651C588.763 88.0651 589.064 87.9411 589.286 87.7201C589.507 87.4981 589.632 87.1981 589.633 86.8841V82.4551C589.633 82.0731 589.785 81.7071 590.055 81.4371C590.325 81.1671 590.692 81.0151 591.074 81.0141H595.501C595.814 81.0131 596.113 80.8871 596.333 80.6651C596.554 80.4441 596.678 80.1441 596.678 79.8311C596.678 79.5181 596.554 79.2181 596.333 78.9971C596.113 78.7751 595.814 78.6491 595.501 78.6481H591.074C590.692 78.6471 590.325 78.4951 590.055 78.2251C589.785 77.9551 589.633 77.5891 589.633 77.2061V72.7781C589.632 72.4641 589.507 72.1641 589.286 71.9421C589.064 71.7211 588.763 71.5971 588.45 71.5971C588.137 71.5971 587.836 71.7211 587.614 71.9421C587.393 72.1641 587.268 72.4641 587.267 72.7781V77.2061C587.267 77.5891 587.115 77.9551 586.845 78.2251C586.575 78.4951 586.208 78.6471 585.826 78.6481H581.399Z" fill="white"/>
<path d="M644.283 534.177C651.619 534.177 657.565 528.229 657.565 520.891C657.565 513.553 651.619 507.604 644.283 507.604C636.947 507.604 631 513.553 631 520.891C631 528.229 636.947 534.177 644.283 534.177Z" fill="#3A3A3A" fill-opacity="0.12"/>
<path d="M637.399 519.648C637.086 519.649 636.787 519.775 636.566 519.997C636.346 520.218 636.222 520.518 636.222 520.831C636.222 521.144 636.346 521.444 636.566 521.665C636.787 521.887 637.086 522.013 637.399 522.014H641.826C642.208 522.015 642.575 522.167 642.845 522.437C643.115 522.707 643.267 523.073 643.267 523.456V527.884C643.268 528.198 643.393 528.498 643.614 528.72C643.836 528.941 644.137 529.065 644.45 529.065C644.763 529.065 645.064 528.941 645.286 528.72C645.507 528.498 645.632 528.198 645.633 527.884V523.455C645.633 523.073 645.785 522.707 646.055 522.437C646.325 522.167 646.692 522.015 647.074 522.014H651.501C651.814 522.013 652.113 521.887 652.333 521.665C652.554 521.444 652.678 521.144 652.678 520.831C652.678 520.518 652.554 520.218 652.333 519.997C652.113 519.775 651.814 519.649 651.501 519.648H647.074C646.692 519.647 646.325 519.495 646.055 519.225C645.785 518.955 645.633 518.589 645.633 518.206V513.778C645.632 513.464 645.507 513.164 645.286 512.942C645.064 512.721 644.763 512.597 644.45 512.597C644.137 512.597 643.836 512.721 643.614 512.942C643.393 513.164 643.268 513.464 643.267 513.778V518.206C643.267 518.589 643.115 518.955 642.845 519.225C642.575 519.495 642.208 519.647 641.826 519.648H637.399Z" fill="white"/>
<path d="M335.283 378.177C342.619 378.177 348.565 372.229 348.565 364.891C348.565 357.553 342.619 351.604 335.283 351.604C327.947 351.604 322 357.553 322 364.891C322 372.229 327.947 378.177 335.283 378.177Z" fill="#3A3A3A" fill-opacity="0.12"/>
<path d="M328.399 363.648C328.086 363.649 327.787 363.775 327.566 363.997C327.346 364.218 327.222 364.518 327.222 364.831C327.222 365.144 327.346 365.444 327.566 365.665C327.787 365.887 328.086 366.013 328.399 366.014H332.826C333.208 366.015 333.575 366.167 333.845 366.437C334.115 366.707 334.267 367.073 334.267 367.456V371.884C334.268 372.198 334.393 372.498 334.614 372.72C334.836 372.941 335.137 373.065 335.45 373.065C335.763 373.065 336.064 372.941 336.286 372.72C336.507 372.498 336.632 372.198 336.633 371.884V367.455C336.633 367.073 336.785 366.707 337.055 366.437C337.325 366.167 337.692 366.015 338.074 366.014H342.501C342.814 366.013 343.113 365.887 343.333 365.665C343.554 365.444 343.678 365.144 343.678 364.831C343.678 364.518 343.554 364.218 343.333 363.997C343.113 363.775 342.814 363.649 342.501 363.648H338.074C337.692 363.647 337.325 363.495 337.055 363.225C336.785 362.955 336.633 362.589 336.633 362.206V357.778C336.632 357.464 336.507 357.164 336.286 356.942C336.064 356.721 335.763 356.597 335.45 356.597C335.137 356.597 334.836 356.721 334.614 356.942C334.393 357.164 334.268 357.464 334.267 357.778V362.206C334.267 362.589 334.115 362.955 333.845 363.225C333.575 363.495 333.208 363.647 332.826 363.648H328.399Z" fill="white"/>
<path d="M47.283 292.177C54.619 292.177 60.565 286.229 60.565 278.891C60.565 271.553 54.619 265.604 47.283 265.604C39.947 265.604 34 271.553 34 278.891C34 286.229 39.947 292.177 47.283 292.177Z" fill="#3A3A3A" fill-opacity="0.12"/>
<path d="M40.399 277.648C40.086 277.649 39.787 277.775 39.566 277.997C39.346 278.218 39.222 278.518 39.222 278.831C39.222 279.144 39.346 279.444 39.566 279.665C39.787 279.887 40.086 280.013 40.399 280.014H44.826C45.208 280.015 45.575 280.167 45.845 280.437C46.115 280.707 46.267 281.073 46.267 281.456V285.884C46.268 286.198 46.393 286.498 46.614 286.72C46.836 286.941 47.137 287.065 47.45 287.065C47.763 287.065 48.064 286.941 48.286 286.72C48.507 286.498 48.632 286.198 48.633 285.884V281.455C48.633 281.073 48.785 280.707 49.055 280.437C49.325 280.167 49.692 280.015 50.074 280.014H54.501C54.814 280.013 55.113 279.887 55.333 279.665C55.554 279.444 55.678 279.144 55.678 278.831C55.678 278.518 55.554 278.218 55.333 277.997C55.113 277.775 54.814 277.649 54.501 277.648H50.074C49.692 277.647 49.325 277.495 49.055 277.225C48.785 276.955 48.633 276.589 48.633 276.206V271.778C48.632 271.464 48.507 271.164 48.286 270.942C48.064 270.721 47.763 270.597 47.45 270.597C47.137 270.597 46.836 270.721 46.614 270.942C46.393 271.164 46.268 271.464 46.267 271.778V276.206C46.267 276.589 46.115 276.955 45.845 277.225C45.575 277.495 45.208 277.647 44.826 277.648H40.399Z" fill="white"/>
<path d="M151.283 241.177C158.619 241.177 164.565 235.229 164.565 227.891C164.565 220.553 158.619 214.604 151.283 214.604C143.947 214.604 138 220.553 138 227.891C138 235.229 143.947 241.177 151.283 241.177Z" fill="#3A3A3A" fill-opacity="0.12"/>
<path d="M144.399 226.648C144.086 226.649 143.787 226.775 143.566 226.997C143.346 227.218 143.222 227.518 143.222 227.831C143.222 228.144 143.346 228.444 143.566 228.665C143.787 228.887 144.086 229.013 144.399 229.014H148.826C149.208 229.015 149.575 229.167 149.845 229.437C150.115 229.707 150.267 230.073 150.267 230.456V234.884C150.268 235.198 150.393 235.498 150.614 235.72C150.836 235.941 151.137 236.065 151.45 236.065C151.763 236.065 152.064 235.941 152.286 235.72C152.507 235.498 152.632 235.198 152.633 234.884V230.455C152.633 230.073 152.785 229.707 153.055 229.437C153.325 229.167 153.692 229.015 154.074 229.014H158.501C158.814 229.013 159.113 228.887 159.333 228.665C159.554 228.444 159.678 228.144 159.678 227.831C159.678 227.518 159.554 227.218 159.333 226.997C159.113 226.775 158.814 226.649 158.501 226.648H154.074C153.692 226.647 153.325 226.495 153.055 226.225C152.785 225.955 152.633 225.589 152.633 225.206V220.778C152.632 220.464 152.507 220.164 152.286 219.942C152.064 219.721 151.763 219.597 151.45 219.597C151.137 219.597 150.836 219.721 150.614 219.942C150.393 220.164 150.268 220.464 150.267 220.778V225.206C150.267 225.589 150.115 225.955 149.845 226.225C149.575 226.495 149.208 226.647 148.826 226.648H144.399Z" fill="white"/>
<path d="M169.3 254.132L169.099 254.465C166.742 258.324 164.265 260.951 161.7 262.304C161.663 262.324 161.625 262.342 161.588 262.362L161.497 262.188L161.412 262.02C164.22 260.582 166.683 257.639 168.74 254.273C168.808 254.165 168.876 254.056 168.941 253.944C169.799 252.511 170.585 251.013 171.293 249.523C171.349 249.408 171.404 249.291 171.46 249.174C172.384 247.203 173.173 245.263 173.815 243.551C173.861 243.43 173.906 243.308 173.949 243.188C175.024 240.287 175.656 238.096 175.792 237.609C175.81 237.55 175.819 237.517 175.821 237.51L176.005 237.56L176.007 237.559L176.192 237.61C176.19 237.618 176.161 237.729 176.102 237.931C175.884 238.691 175.272 240.74 174.31 243.35C174.266 243.468 174.222 243.589 174.176 243.71C173.656 245.1 173.043 246.633 172.34 248.207C172.164 248.602 171.987 248.99 171.807 249.37C171.753 249.488 171.698 249.606 171.642 249.721C170.877 251.331 170.096 252.801 169.3 254.132Z" fill="white"/>
<path d="M174.31 243.35C174.191 243.298 174.07 243.245 173.949 243.188C173.621 243.033 173.301 242.862 172.991 242.674C171.666 241.876 170.538 240.792 169.688 239.5C169.566 239.545 169.444 239.591 169.32 239.637C170.205 241.009 171.393 242.161 172.791 243.004C173.123 243.204 173.465 243.387 173.816 243.551C173.935 243.607 174.056 243.66 174.176 243.71C175.167 244.13 176.215 244.397 177.286 244.502C177.27 244.369 177.255 244.238 177.24 244.11C176.231 244.002 175.244 243.746 174.31 243.35Z" fill="white"/>
<path d="M171.807 249.37C171.689 249.308 171.573 249.242 171.46 249.173C171.424 249.154 171.388 249.132 171.353 249.111C169.919 248.245 168.716 247.045 167.846 245.613C166.976 244.181 166.465 242.56 166.357 240.888C166.233 240.945 166.108 241.002 165.984 241.063C166.118 242.77 166.657 244.42 167.557 245.877C168.456 247.334 169.689 248.556 171.154 249.441C171.2 249.469 171.246 249.497 171.293 249.523C171.41 249.591 171.526 249.657 171.642 249.72C173.457 250.694 175.513 251.124 177.565 250.959C177.571 250.829 177.577 250.7 177.581 250.57C175.581 250.741 173.574 250.323 171.807 249.37Z" fill="white"/>
<g filter="url(#filter2_d)">
<path d="M185.087 326.316H141.609C141.292 326.315 140.988 326.19 140.765 325.966C140.541 325.742 140.415 325.438 140.415 325.121V261.853C140.415 261.537 140.541 261.233 140.765 261.009C140.988 260.785 141.292 260.659 141.609 260.659H185.087C185.403 260.659 185.707 260.785 185.931 261.009C186.154 261.233 186.28 261.537 186.281 261.853V325.121C186.28 325.438 186.154 325.742 185.931 325.966C185.707 326.19 185.403 326.315 185.087 326.316Z" fill="white"/>
</g>
<path d="M177.708 294.127H148.988V295.194H177.708V294.127Z" fill="#E4E4E4"/>
<path d="M177.708 297.507H148.988V298.575H177.708V297.507Z" fill="#E4E4E4"/>
<path d="M177.708 300.888H148.988V301.955H177.708V300.888Z" fill="#E4E4E4"/>
<path d="M177.708 308.295H148.988V309.362H177.708V308.295Z" fill="#E4E4E4"/>
<path d="M177.708 311.675H148.988V312.743H177.708V311.675Z" fill="#E4E4E4"/>
<path d="M177.708 315.056H148.988V316.123H177.708V315.056Z" fill="#E4E4E4"/>
<path d="M168.296 269.679L157.045 274.032L161.246 284.896L172.496 280.544L168.296 269.679Z" fill="#4D4D4D" fill-opacity="0.5"/>
<path d="M158.518 284.5L153.968 272.73L166.144 268.02L170.694 279.789L158.518 284.5ZM154.43 272.935L158.723 284.037L170.232 279.585L165.939 268.482L154.43 272.935Z" fill="#3F3D56"/>
<path d="M421.632 501.433L415.062 502.77L421.818 499.165C422.07 492.773 420.249 486.016 420.249 486.016C420.249 486.016 406.089 489.193 402.009 495.95C397.929 502.707 400.52 507.493 405.474 510.486C410.427 513.479 415.868 513.546 419.948 506.789C420.869 505.137 421.442 503.314 421.632 501.433Z" fill="#DEFFD9" fill-opacity="0.7"/>
<path d="M413.85 502.324L413.649 502.657C411.291 506.517 408.814 509.143 406.249 510.496C406.212 510.517 406.174 510.534 406.137 510.555L406.047 510.381L405.962 510.212C408.77 508.774 411.233 505.831 413.29 502.465C413.357 502.357 413.426 502.248 413.491 502.136C414.349 500.704 415.135 499.205 415.843 497.716C415.899 497.601 415.954 497.483 416.009 497.366C416.934 495.395 417.723 493.455 418.365 491.743C418.411 491.622 418.455 491.501 418.498 491.381C419.573 488.479 420.205 486.289 420.342 485.802C420.359 485.743 420.368 485.71 420.37 485.702L420.554 485.752L420.557 485.751L420.742 485.803C420.739 485.81 420.711 485.921 420.651 486.124C420.433 486.883 419.821 488.933 418.859 491.543C418.816 491.66 418.771 491.782 418.725 491.903C418.206 493.292 417.592 494.826 416.89 496.399C416.714 496.795 416.536 497.183 416.356 497.562C416.303 497.681 416.247 497.798 416.192 497.913C415.426 499.523 414.646 500.994 413.85 502.324Z" fill="white"/>
<path d="M418.859 491.543C418.74 491.491 418.619 491.438 418.498 491.381C418.17 491.226 417.85 491.054 417.54 490.867C416.215 490.069 415.087 488.984 414.237 487.692C414.115 487.738 413.993 487.783 413.869 487.829C414.754 489.202 415.942 490.353 417.341 491.196C417.672 491.397 418.014 491.579 418.365 491.743C418.484 491.799 418.605 491.852 418.725 491.903C419.716 492.323 420.765 492.59 421.835 492.695C421.819 492.561 421.804 492.43 421.789 492.302C420.78 492.195 419.793 491.939 418.859 491.543Z" fill="white"/>
<path d="M416.356 497.562C416.238 497.5 416.123 497.435 416.009 497.366C415.973 497.347 415.937 497.325 415.902 497.304C414.469 496.437 413.265 495.237 412.396 493.805C411.526 492.373 411.015 490.752 410.907 489.08C410.782 489.137 410.657 489.195 410.533 489.255C410.668 490.962 411.207 492.612 412.106 494.069C413.005 495.526 414.238 496.748 415.703 497.633C415.749 497.661 415.796 497.689 415.843 497.715C415.959 497.784 416.075 497.849 416.192 497.913C418.006 498.886 420.062 499.316 422.114 499.151C422.12 499.022 422.126 498.893 422.131 498.763C420.13 498.933 418.123 498.516 416.356 497.562Z" fill="white"/>
<path d="M413.85 502.324C413.728 502.264 413.609 502.201 413.491 502.137C413.364 502.067 413.238 501.995 413.115 501.921C411.189 500.754 409.694 498.995 408.851 496.908C408.009 494.82 407.865 492.515 408.442 490.338C408.287 490.427 408.133 490.514 407.981 490.605C407.476 492.819 407.681 495.135 408.566 497.226C409.452 499.316 410.974 501.074 412.916 502.25C413.039 502.325 413.164 502.398 413.29 502.465C413.409 502.533 413.528 502.596 413.649 502.657C416.089 503.883 418.904 504.135 421.524 503.363C421.563 503.22 421.596 503.076 421.63 502.93C419.057 503.748 416.266 503.53 413.85 502.324Z" fill="white"/>
<path d="M429.56 576.98H386.234C385.207 576.979 384.223 576.571 383.497 575.844C382.77 575.118 382.362 574.133 382.361 573.106V510.254C382.362 509.227 382.77 508.242 383.497 507.515C384.223 506.789 385.207 506.38 386.234 506.379H429.56C430.587 506.38 431.571 506.789 432.297 507.515C433.023 508.242 433.432 509.227 433.433 510.254V573.106C433.432 574.133 433.023 575.118 432.297 575.844C431.571 576.571 430.587 576.979 429.56 576.98Z" fill="#A8A8A8" fill-opacity="0.5"/>
<g filter="url(#filter3_d)">
<path d="M429.636 574.508H386.158C385.841 574.508 385.538 574.382 385.314 574.158C385.09 573.934 384.964 573.631 384.964 573.314V510.046C384.964 509.729 385.09 509.426 385.314 509.202C385.538 508.978 385.841 508.852 386.158 508.851H429.636C429.953 508.852 430.256 508.978 430.48 509.202C430.704 509.426 430.83 509.729 430.83 510.046V573.314C430.83 573.631 430.704 573.934 430.48 574.158C430.256 574.382 429.953 574.508 429.636 574.508Z" fill="white"/>
</g>
<path d="M422.257 542.319H393.537V543.387H422.257V542.319Z" fill="#E4E4E4"/>
<path d="M422.257 545.7H393.537V546.767H422.257V545.7Z" fill="#E4E4E4"/>
<path d="M422.257 549.08H393.537V550.148H422.257V549.08Z" fill="#E4E4E4"/>
<path d="M422.257 556.487H393.537V557.555H422.257V556.487Z" fill="#E4E4E4"/>
<path d="M422.257 559.868H393.537V560.935H422.257V559.868Z" fill="#E4E4E4"/>
<path d="M422.257 563.248H393.537V564.315H422.257V563.248Z" fill="#E4E4E4"/>
<path d="M412.845 517.872L401.595 522.224L405.795 533.089L417.045 528.736L412.845 517.872Z" fill="#3A3A3A" fill-opacity="0.5"/>
<path d="M403.068 532.692L398.517 520.923L410.693 516.212L415.244 527.982L403.068 532.692ZM398.98 521.127L403.272 532.229L414.781 527.777L410.489 516.675L398.98 521.127Z" fill="#3F3D56"/>
<path d="M672.242 396.949L665.672 398.286L672.428 394.682C672.68 388.29 670.859 381.533 670.859 381.533C670.859 381.533 656.699 384.71 652.619 391.467C648.539 398.224 651.13 403.01 656.083 406.003C661.037 408.996 666.477 409.063 670.557 402.306C671.479 400.654 672.052 398.831 672.242 396.949Z" fill="#DEFFD9" fill-opacity="0.7"/>
<path d="M664.459 397.841L664.258 398.174C661.901 402.033 659.424 404.66 656.859 406.013C656.822 406.033 656.784 406.051 656.747 406.071L656.656 405.897L656.571 405.729C659.379 404.291 661.842 401.348 663.899 397.982C663.967 397.874 664.035 397.765 664.1 397.653C664.958 396.221 665.744 394.722 666.452 393.232C666.508 393.117 666.563 393 666.619 392.883C667.543 390.912 668.332 388.972 668.974 387.26C669.02 387.139 669.065 387.017 669.108 386.897C670.183 383.996 670.815 381.805 670.951 381.318C670.969 381.259 670.978 381.226 670.98 381.219L671.164 381.269L671.166 381.268L671.351 381.319C671.349 381.327 671.32 381.438 671.261 381.64C671.043 382.4 670.431 384.449 669.469 387.059C669.425 387.177 669.381 387.298 669.335 387.419C668.815 388.809 668.202 390.342 667.499 391.916C667.323 392.312 667.146 392.699 666.966 393.079C666.912 393.197 666.857 393.315 666.801 393.43C666.036 395.04 665.255 396.51 664.459 397.841Z" fill="white"/>
<path d="M669.469 387.059C669.35 387.007 669.229 386.954 669.108 386.897C668.78 386.742 668.46 386.571 668.149 386.383C666.825 385.585 665.696 384.501 664.847 383.209C664.725 383.254 664.603 383.3 664.478 383.346C665.364 384.718 666.552 385.87 667.95 386.713C668.282 386.913 668.624 387.096 668.974 387.26C669.093 387.316 669.214 387.369 669.335 387.419C670.325 387.839 671.374 388.106 672.445 388.211C672.429 388.078 672.413 387.947 672.398 387.819C671.39 387.711 670.403 387.455 669.469 387.059Z" fill="white"/>
<path d="M666.966 393.079C666.848 393.017 666.732 392.951 666.618 392.883C666.583 392.863 666.547 392.841 666.512 392.82C665.078 391.954 663.875 390.754 663.005 389.322C662.135 387.89 661.624 386.269 661.516 384.597C661.391 384.654 661.267 384.711 661.143 384.772C661.277 386.479 661.816 388.129 662.715 389.586C663.615 391.043 664.848 392.265 666.313 393.15C666.359 393.178 666.405 393.206 666.452 393.232C666.569 393.3 666.684 393.366 666.801 393.429C668.616 394.403 670.672 394.833 672.724 394.668C672.73 394.539 672.736 394.409 672.74 394.279C670.74 394.45 668.733 394.033 666.966 393.079Z" fill="white"/>
<path d="M664.459 397.841C664.338 397.781 664.218 397.718 664.1 397.653C663.973 397.583 663.848 397.512 663.724 397.437C661.799 396.271 660.303 394.512 659.461 392.424C658.618 390.336 658.474 388.031 659.051 385.855C658.896 385.944 658.742 386.031 658.591 386.122C658.085 388.335 658.29 390.652 659.176 392.742C660.062 394.833 661.583 396.591 663.525 397.767C663.649 397.842 663.773 397.915 663.899 397.982C664.018 398.049 664.138 398.112 664.258 398.174C666.699 399.4 669.514 399.652 672.134 398.879C672.173 398.736 672.206 398.592 672.24 398.446C669.666 399.264 666.875 399.047 664.459 397.841Z" fill="white"/>
<path d="M680.169 472.497H636.843C635.817 472.496 634.832 472.087 634.106 471.361C633.38 470.634 632.971 469.65 632.97 468.622V405.77C632.971 404.743 633.38 403.758 634.106 403.032C634.832 402.306 635.817 401.897 636.843 401.896H680.169C681.196 401.897 682.181 402.306 682.907 403.032C683.633 403.758 684.041 404.743 684.043 405.77V468.622C684.041 469.65 683.633 470.634 682.907 471.361C682.181 472.087 681.196 472.496 680.169 472.497Z" fill="#A8A8A8" fill-opacity="0.5"/>
<g filter="url(#filter4_d)">
<path d="M680.246 470.025H636.767C636.451 470.025 636.147 469.899 635.923 469.675C635.7 469.451 635.574 469.147 635.573 468.831V405.562C635.574 405.246 635.7 404.942 635.923 404.718C636.147 404.494 636.451 404.368 636.767 404.368H680.246C680.562 404.368 680.866 404.494 681.09 404.718C681.313 404.942 681.439 405.246 681.44 405.562V468.831C681.439 469.147 681.313 469.451 681.09 469.675C680.866 469.899 680.562 470.025 680.246 470.025Z" fill="white"/>
</g>
<path d="M672.866 437.836H644.146V438.904H672.866V437.836Z" fill="#E4E4E4"/>
<path d="M672.866 441.216H644.146V442.284H672.866V441.216Z" fill="#E4E4E4"/>
<path d="M672.866 444.597H644.146V445.664H672.866V444.597Z" fill="#E4E4E4"/>
<path d="M672.866 452.004H644.146V453.071H672.866V452.004Z" fill="#E4E4E4"/>
<path d="M672.866 455.384H644.146V456.452H672.866V455.384Z" fill="#E4E4E4"/>
<path d="M672.866 458.765H644.146V459.832H672.866V458.765Z" fill="#E4E4E4"/>
<path d="M663.455 413.388L652.204 417.741L656.405 428.605L667.655 424.253L663.455 413.388Z" fill="#4A4A4A" fill-opacity="0.5"/>
<path d="M653.677 428.209L649.127 416.439L661.303 411.729L665.853 423.498L653.677 428.209ZM649.589 416.644L653.882 427.746L665.391 423.294L661.098 412.191L649.589 416.644Z" fill="#3F3D56"/>
<path d="M343.902 561.366H180.18C179.675 561.366 179.192 561.165 178.835 560.808C178.478 560.451 178.277 559.967 178.277 559.463V407.371C178.277 406.866 178.478 406.382 178.835 406.026C179.192 405.669 179.675 405.468 180.18 405.467H343.902C344.406 405.468 344.89 405.669 345.247 406.026C345.603 406.382 345.804 406.866 345.805 407.371V559.462C345.804 559.967 345.604 560.451 345.247 560.808C344.89 561.165 344.406 561.365 343.902 561.366ZM180.18 406.227C179.877 406.228 179.588 406.348 179.374 406.562C179.16 406.776 179.04 407.066 179.039 407.368V559.462C179.04 559.765 179.16 560.055 179.374 560.269C179.588 560.482 179.877 560.603 180.18 560.604H343.902C344.204 560.603 344.494 560.483 344.708 560.269C344.922 560.055 345.042 559.765 345.043 559.462V407.371C345.042 407.068 344.922 406.778 344.708 406.565C344.494 406.351 344.204 406.23 343.902 406.23L180.18 406.227Z" fill="#A8A8A8" fill-opacity="0.77"/>
<path d="M257.542 444.989C257.199 444.989 256.87 445.125 256.628 445.368C256.386 445.61 256.25 445.939 256.25 446.281C256.25 446.624 256.386 446.953 256.628 447.195C256.87 447.437 257.199 447.574 257.542 447.574H328.431C328.774 447.574 329.102 447.437 329.344 447.195C329.587 446.953 329.723 446.624 329.723 446.281C329.723 445.939 329.587 445.61 329.344 445.368C329.102 445.125 328.774 444.989 328.431 444.989H257.542Z" fill="#A8A8A8" fill-opacity="0.77"/>
<path d="M257.542 452.744C257.199 452.744 256.87 452.88 256.628 453.122C256.386 453.364 256.25 453.693 256.25 454.036C256.25 454.379 256.386 454.707 256.628 454.95C256.87 455.192 257.199 455.328 257.542 455.328H293.732C294.075 455.328 294.403 455.192 294.646 454.95C294.888 454.707 295.024 454.379 295.024 454.036C295.024 453.693 294.888 453.364 294.646 453.122C294.403 452.88 294.075 452.744 293.732 452.744H257.542Z" fill="#A8A8A8" fill-opacity="0.77"/>
<path d="M195.582 490.277C195.239 490.277 194.911 490.413 194.668 490.655C194.426 490.898 194.29 491.226 194.29 491.569C194.29 491.912 194.426 492.241 194.668 492.483C194.911 492.725 195.239 492.862 195.582 492.862H328.5C328.842 492.862 329.171 492.725 329.413 492.483C329.656 492.241 329.792 491.912 329.792 491.569C329.792 491.226 329.656 490.898 329.413 490.655C329.171 490.413 328.842 490.277 328.5 490.277H195.582Z" fill="#A8A8A8" fill-opacity="0.77"/>
<path d="M195.582 498.031C195.239 498.031 194.911 498.168 194.668 498.41C194.426 498.652 194.29 498.981 194.29 499.324C194.29 499.667 194.426 499.995 194.668 500.238C194.911 500.48 195.239 500.616 195.582 500.616H293.801C294.144 500.616 294.472 500.48 294.714 500.238C294.957 499.995 295.093 499.667 295.093 499.324C295.093 498.981 294.957 498.652 294.714 498.41C294.472 498.168 294.144 498.031 293.801 498.031H195.582Z" fill="#A8A8A8" fill-opacity="0.77"/>
<path d="M195.582 505.611C195.239 505.611 194.911 505.747 194.668 505.989C194.426 506.231 194.29 506.56 194.29 506.903C194.29 507.246 194.426 507.574 194.668 507.817C194.911 508.059 195.239 508.195 195.582 508.195H328.5C328.842 508.195 329.171 508.059 329.413 507.817C329.656 507.574 329.792 507.246 329.792 506.903C329.792 506.56 329.656 506.231 329.413 505.989C329.171 505.747 328.842 505.611 328.5 505.611H195.582Z" fill="#A8A8A8" fill-opacity="0.77"/>
<path d="M195.582 513.365C195.239 513.365 194.911 513.501 194.668 513.744C194.426 513.986 194.29 514.315 194.29 514.658C194.29 515 194.426 515.329 194.668 515.571C194.911 515.814 195.239 515.95 195.582 515.95H293.801C294.144 515.95 294.472 515.814 294.714 515.571C294.957 515.329 295.093 515 295.093 514.658C295.093 514.315 294.957 513.986 294.714 513.744C294.472 513.501 294.144 513.365 293.801 513.365H195.582Z" fill="#A8A8A8" fill-opacity="0.77"/>
<path d="M239.626 472.217H136.863C136.358 472.216 135.874 472.015 135.518 471.658C135.161 471.302 134.96 470.818 134.96 470.313V425.201C134.96 424.696 135.161 424.212 135.518 423.856C135.874 423.499 136.358 423.298 136.863 423.297H239.626C240.131 423.298 240.614 423.499 240.971 423.856C241.328 424.212 241.528 424.696 241.529 425.201V470.313C241.528 470.818 241.328 471.302 240.971 471.658C240.614 472.015 240.131 472.216 239.626 472.217Z" fill="#787878" fill-opacity="0.12"/>
<path d="M327.678 543.536H288.725C288.221 543.536 287.737 543.335 287.38 542.978C287.024 542.621 286.823 542.138 286.822 541.633V535.39C286.823 534.885 287.024 534.401 287.38 534.044C287.737 533.688 288.221 533.487 288.725 533.486H327.678C328.182 533.487 328.666 533.688 329.023 534.044C329.38 534.401 329.58 534.885 329.581 535.39V541.633C329.58 542.138 329.38 542.621 329.023 542.978C328.666 543.335 328.182 543.536 327.678 543.536Z" fill="black" fill-opacity="0.2"/>
<path d="M183.633 439.12C183.187 439.121 182.826 439.701 182.827 440.414C182.828 441.126 183.188 441.703 183.633 441.704H221.731C222.177 441.703 222.538 441.123 222.537 440.409C222.536 439.698 222.176 439.121 221.731 439.12H183.633Z" fill="white"/>
<path d="M183.633 446.608C183.187 446.61 182.826 447.189 182.827 447.903C182.828 448.615 183.188 449.191 183.633 449.193H221.731C222.177 449.191 222.538 448.612 222.537 447.898C222.536 447.186 222.176 446.61 221.731 446.608H183.633Z" fill="white"/>
<path d="M183.633 454.006C183.187 454.008 182.826 454.587 182.827 455.301C182.828 456.013 183.188 456.589 183.633 456.591H200.027C200.473 456.589 200.834 456.01 200.833 455.296C200.832 454.584 200.472 454.008 200.027 454.006H183.633Z" fill="white"/>
<path d="M164.289 458.098C169.999 458.098 174.628 453.468 174.628 447.757C174.628 442.046 169.999 437.416 164.289 437.416C158.58 437.416 153.951 442.046 153.951 447.757C153.951 453.468 158.58 458.098 164.289 458.098Z" fill="white"/>
<path d="M244.459 317.785L237.889 319.122L244.645 315.517C244.897 309.125 243.076 302.368 243.076 302.368C243.076 302.368 228.916 305.545 224.836 312.302C220.756 319.059 223.347 323.845 228.301 326.838C233.254 329.831 238.695 329.898 242.775 323.141C243.696 321.489 244.269 319.666 244.459 317.785Z" fill="#DEFFD9" fill-opacity="0.7"/>
<path d="M236.676 318.676L236.475 319.009C234.118 322.869 231.641 325.495 229.076 326.848C229.039 326.868 229.001 326.886 228.964 326.907L228.873 326.733L228.788 326.564C231.596 325.126 234.059 322.183 236.116 318.817C236.184 318.709 236.252 318.6 236.317 318.488C237.175 317.056 237.961 315.557 238.669 314.067C238.725 313.953 238.78 313.835 238.836 313.718C239.76 311.747 240.549 309.807 241.191 308.095C241.237 307.974 241.282 307.853 241.325 307.732C242.4 304.831 243.032 302.64 243.168 302.154C243.186 302.094 243.195 302.061 243.197 302.054L243.381 302.104L243.383 302.103L243.568 302.154C243.566 302.162 243.537 302.273 243.478 302.476C243.26 303.235 242.648 305.284 241.686 307.894C241.642 308.012 241.598 308.134 241.552 308.254C241.032 309.644 240.419 311.177 239.716 312.751C239.54 313.147 239.363 313.534 239.183 313.914C239.129 314.033 239.074 314.15 239.018 314.265C238.253 315.875 237.472 317.345 236.676 318.676Z" fill="white"/>
<path d="M241.686 307.894C241.567 307.842 241.446 307.79 241.325 307.732C240.997 307.578 240.677 307.406 240.367 307.219C239.042 306.421 237.914 305.336 237.064 304.044C236.942 304.089 236.82 304.135 236.696 304.181C237.581 305.554 238.769 306.705 240.167 307.548C240.499 307.748 240.841 307.931 241.192 308.095C241.311 308.151 241.432 308.204 241.552 308.254C242.543 308.674 243.591 308.942 244.662 309.047C244.646 308.913 244.63 308.782 244.616 308.654C243.607 308.546 242.62 308.29 241.686 307.894Z" fill="white"/>
<path d="M239.183 313.914C239.065 313.852 238.949 313.786 238.836 313.718C238.8 313.699 238.764 313.677 238.729 313.656C237.295 312.789 236.092 311.589 235.222 310.157C234.352 308.725 233.841 307.104 233.733 305.432C233.609 305.489 233.484 305.547 233.36 305.607C233.494 307.314 234.033 308.964 234.932 310.421C235.832 311.878 237.065 313.1 238.53 313.985C238.576 314.013 238.622 314.041 238.669 314.067C238.786 314.135 238.902 314.201 239.018 314.265C240.833 315.238 242.889 315.668 244.941 315.503C244.947 315.374 244.953 315.245 244.957 315.114C242.957 315.285 240.95 314.868 239.183 313.914Z" fill="white"/>
<path d="M236.676 318.676C236.555 318.616 236.436 318.553 236.317 318.488C236.191 318.419 236.065 318.347 235.941 318.272C234.016 317.106 232.52 315.347 231.678 313.259C230.835 311.171 230.692 308.867 231.268 306.69C231.113 306.779 230.96 306.866 230.808 306.957C230.303 309.17 230.507 311.487 231.393 313.577C232.279 315.668 233.801 317.426 235.742 318.602C235.866 318.677 235.991 318.75 236.117 318.817C236.236 318.884 236.355 318.948 236.475 319.009C238.916 320.235 241.731 320.487 244.351 319.715C244.39 319.572 244.423 319.427 244.457 319.281C241.883 320.099 239.093 319.882 236.676 318.676Z" fill="white"/>
<path d="M252.386 393.332H209.061C208.034 393.331 207.049 392.922 206.323 392.196C205.597 391.47 205.189 390.485 205.187 389.458V326.606C205.189 325.579 205.597 324.594 206.323 323.867C207.049 323.141 208.034 322.732 209.061 322.731H252.386C253.413 322.732 254.398 323.141 255.124 323.867C255.85 324.594 256.259 325.579 256.26 326.606V389.458C256.259 390.485 255.85 391.47 255.124 392.196C254.398 392.922 253.413 393.331 252.386 393.332Z" fill="#A8A8A8" fill-opacity="0.5"/>
<g filter="url(#filter5_d)">
<path d="M252.463 390.86H208.984C208.668 390.86 208.364 390.734 208.141 390.51C207.917 390.286 207.791 389.982 207.79 389.666V326.398C207.791 326.081 207.917 325.777 208.141 325.554C208.364 325.33 208.668 325.204 208.984 325.203H252.463C252.779 325.204 253.083 325.33 253.307 325.554C253.53 325.777 253.656 326.081 253.657 326.398V389.666C253.656 389.982 253.53 390.286 253.307 390.51C253.083 390.734 252.779 390.86 252.463 390.86Z" fill="white"/>
</g>
<path d="M245.084 358.671H216.364V359.739H245.084V358.671Z" fill="#E4E4E4"/>
<path d="M245.084 362.052H216.364V363.119H245.084V362.052Z" fill="#E4E4E4"/>
<path d="M245.084 365.432H216.364V366.5H245.084V365.432Z" fill="#E4E4E4"/>
<path d="M245.084 372.839H216.364V373.906H245.084V372.839Z" fill="#E4E4E4"/>
<path d="M245.084 376.219H216.364V377.287H245.084V376.219Z" fill="#E4E4E4"/>
<path d="M245.084 379.6H216.364V380.667H245.084V379.6Z" fill="#E4E4E4"/>
<path d="M235.672 334.224L224.421 338.576L228.622 349.44L239.872 345.088L235.672 334.224Z" fill="#484848" fill-opacity="0.5"/>
<path d="M225.894 349.044L221.344 337.274L233.52 332.564L238.07 344.333L225.894 349.044ZM221.806 337.479L226.099 348.581L237.608 344.129L233.315 333.026L221.806 337.479Z" fill="#3F3D56"/>
<rect width="775" height="236" fill="url(#paint0_linear)" fill-opacity="0.21"/>
<defs>
<filter id="filter0_d" x="488.979" y="288.117" width="53.866" height="73.657" filterUnits="userSpaceOnUse" color-interpolation-filters="sRGB">
<feFlood flood-opacity="0" result="BackgroundImageFix"/>
<feColorMatrix in="SourceAlpha" type="matrix" values="0 0 0 0 0 0 0 0 0 0 0 0 0 0 0 0 0 0 127 0" result="hardAlpha"/>
<feOffset dy="4"/>
<feGaussianBlur stdDeviation="2"/>
<feColorMatrix type="matrix" values="0 0 0 0 0 0 0 0 0 0 0 0 0 0 0 0 0 0 0.25 0"/>
<feBlend mode="normal" in2="BackgroundImageFix" result="effect1_dropShadow"/>
<feBlend mode="normal" in="SourceGraphic" in2="effect1_dropShadow" result="shape"/>
</filter>
<filter id="filter1_d" x="31.2373" y="508.753" width="53.8662" height="73.657" filterUnits="userSpaceOnUse" color-interpolation-filters="sRGB">
<feFlood flood-opacity="0" result="BackgroundImageFix"/>
<feColorMatrix in="SourceAlpha" type="matrix" values="0 0 0 0 0 0 0 0 0 0 0 0 0 0 0 0 0 0 127 0" result="hardAlpha"/>
<feOffset dy="4"/>
<feGaussianBlur stdDeviation="2"/>
<feColorMatrix type="matrix" values="0 0 0 0 0 0 0 0 0 0 0 0 0 0 0 0 0 0 0.25 0"/>
<feBlend mode="normal" in2="BackgroundImageFix" result="effect1_dropShadow"/>
<feBlend mode="normal" in="SourceGraphic" in2="effect1_dropShadow" result="shape"/>
</filter>
<filter id="filter2_d" x="136.415" y="260.659" width="53.866" height="73.657" filterUnits="userSpaceOnUse" color-interpolation-filters="sRGB">
<feFlood flood-opacity="0" result="BackgroundImageFix"/>
<feColorMatrix in="SourceAlpha" type="matrix" values="0 0 0 0 0 0 0 0 0 0 0 0 0 0 0 0 0 0 127 0" result="hardAlpha"/>
<feOffset dy="4"/>
<feGaussianBlur stdDeviation="2"/>
<feColorMatrix type="matrix" values="0 0 0 0 0 0 0 0 0 0 0 0 0 0 0 0 0 0 0.25 0"/>
<feBlend mode="normal" in2="BackgroundImageFix" result="effect1_dropShadow"/>
<feBlend mode="normal" in="SourceGraphic" in2="effect1_dropShadow" result="shape"/>
</filter>
<filter id="filter3_d" x="380.964" y="508.851" width="53.866" height="73.657" filterUnits="userSpaceOnUse" color-interpolation-filters="sRGB">
<feFlood flood-opacity="0" result="BackgroundImageFix"/>
<feColorMatrix in="SourceAlpha" type="matrix" values="0 0 0 0 0 0 0 0 0 0 0 0 0 0 0 0 0 0 127 0" result="hardAlpha"/>
<feOffset dy="4"/>
<feGaussianBlur stdDeviation="2"/>
<feColorMatrix type="matrix" values="0 0 0 0 0 0 0 0 0 0 0 0 0 0 0 0 0 0 0.25 0"/>
<feBlend mode="normal" in2="BackgroundImageFix" result="effect1_dropShadow"/>
<feBlend mode="normal" in="SourceGraphic" in2="effect1_dropShadow" result="shape"/>
</filter>
<filter id="filter4_d" x="631.573" y="404.368" width="53.867" height="73.657" filterUnits="userSpaceOnUse" color-interpolation-filters="sRGB">
<feFlood flood-opacity="0" result="BackgroundImageFix"/>
<feColorMatrix in="SourceAlpha" type="matrix" values="0 0 0 0 0 0 0 0 0 0 0 0 0 0 0 0 0 0 127 0" result="hardAlpha"/>
<feOffset dy="4"/>
<feGaussianBlur stdDeviation="2"/>
<feColorMatrix type="matrix" values="0 0 0 0 0 0 0 0 0 0 0 0 0 0 0 0 0 0 0.25 0"/>
<feBlend mode="normal" in2="BackgroundImageFix" result="effect1_dropShadow"/>
<feBlend mode="normal" in="SourceGraphic" in2="effect1_dropShadow" result="shape"/>
</filter>
<filter id="filter5_d" x="203.79" y="325.203" width="53.867" height="73.657" filterUnits="userSpaceOnUse" color-interpolation-filters="sRGB">
<feFlood flood-opacity="0" result="BackgroundImageFix"/>
<feColorMatrix in="SourceAlpha" type="matrix" values="0 0 0 0 0 0 0 0 0 0 0 0 0 0 0 0 0 0 127 0" result="hardAlpha"/>
<feOffset dy="4"/>
<feGaussianBlur stdDeviation="2"/>
<feColorMatrix type="matrix" values="0 0 0 0 0 0 0 0 0 0 0 0 0 0 0 0 0 0 0.25 0"/>
<feBlend mode="normal" in2="BackgroundImageFix" result="effect1_dropShadow"/>
<feBlend mode="normal" in="SourceGraphic" in2="effect1_dropShadow" result="shape"/>
</filter>
<linearGradient id="paint0_linear" x1="387.5" y1="0" x2="387.5" y2="236" gradientUnits="userSpaceOnUse">
<stop offset="0.299988"/>
<stop offset="1" stop-opacity="0.12"/>
</linearGradient>
</defs>
</svg>
