<svg width="612" height="632" viewBox="0 0 612 632" fill="none" xmlns="http://www.w3.org/2000/svg">
<g id="wfh_9 1">
<path id="Vector" d="M569.189 0H42.8113C19.1673 0 0 19.7937 0 44.2105V587.789C0 612.206 19.1673 632 42.8113 632H569.189C592.833 632 612 612.206 612 587.789V44.2105C612 19.7937 592.833 0 569.189 0Z" fill="url(#paint0_linear)"/>
<path id="Vector_2" d="M556 76C570.912 76 583 64.3594 583 50C583 35.6406 570.912 24 556 24C541.088 24 529 35.6406 529 50C529 64.3594 541.088 76 556 76Z" fill="white"/>
</g>
<defs>
<linearGradient id="paint0_linear" x1="306" y1="0" x2="306" y2="632" gradientUnits="userSpaceOnUse">
<stop stop-color="#292929"/>
<stop offset="1" stop-color="#020202"/>
</linearGradient>
</defs>
</svg>
