<svg width="612" height="632" viewBox="0 0 612 632" fill="none" xmlns="http://www.w3.org/2000/svg">
<g id="wfh_9 1">
<path id="Vector" d="M569.189 0H42.8113C19.1673 0 0 19.7937 0 44.2105V587.789C0 612.206 19.1673 632 42.8113 632H569.189C592.833 632 612 612.206 612 587.789V44.2105C612 19.7937 592.833 0 569.189 0Z" fill="url(#paint0_linear)"/>
<path id="Vector_2" d="M427 59C436.941 59 445 51.165 445 41.5C445 31.835 436.941 24 427 24C417.059 24 409 31.835 409 41.5C409 51.165 417.059 59 427 59Z" fill="white"/>
<path id="Vector_3" d="M547 59C556.941 59 565 51.165 565 41.5C565 31.835 556.941 24 547 24C537.059 24 529 31.835 529 41.5C529 51.165 537.059 59 547 59Z" fill="white"/>
<path id="Vector_4" d="M487 59C496.941 59 505 51.165 505 41.5C505 31.835 496.941 24 487 24C477.059 24 469 31.835 469 41.5C469 51.165 477.059 59 487 59Z" fill="white"/>
</g>
<defs>
<linearGradient id="paint0_linear" x1="306" y1="0" x2="306" y2="632" gradientUnits="userSpaceOnUse">
<stop stop-color="#292929"/>
<stop offset="1" stop-color="#020202"/>
</linearGradient>
</defs>
</svg>
