<svg width="364" height="500" viewBox="0 0 364 500" fill="none" xmlns="http://www.w3.org/2000/svg">
<g id="undraw_summer_jx06 1">
<path id="Vector" d="M246.655 87.3954C239.406 108.856 228.292 128.411 205.64 128.411C182.988 128.411 165.901 110.011 164.625 87.3954C162.994 58.4967 182.465 46.2607 205.64 46.3804C233.017 46.5218 255.257 61.9265 246.655 87.3954Z" fill="#2F2E41"/>
<path id="Vector_2" d="M238.889 81.9392H171.801V179.708H238.889V81.9392Z" fill="#2F2E41"/>
<path id="Vector_3" d="M152.238 290.039L155.646 315.598L234.879 310.486L230.619 287.483L152.238 290.039Z" fill="#FFB8B8"/>
<path id="Vector_4" d="M189.724 139.24C189.724 139.24 199.948 167.355 180.353 171.615C160.757 175.874 183.76 194.618 183.76 194.618L214.432 192.914L235.731 186.95L242.547 175.022C242.547 175.022 216.136 161.391 223.803 140.091L189.724 139.24Z" fill="#FFB8B8"/>
<path id="Vector_5" opacity="0.1" d="M189.724 139.24C189.724 139.24 199.948 167.355 180.353 171.615C160.757 175.874 183.76 194.618 183.76 194.618L214.432 192.914L235.731 186.95L242.547 175.022C242.547 175.022 216.136 161.391 223.803 140.091L189.724 139.24Z" fill="black"/>
<g id="arm2">
<path id="Vector_6" d="M249.362 250.848L251.066 315.598C251.066 315.598 257.03 328.378 268.958 336.898C280.886 345.417 314.113 357.345 314.113 357.345C314.113 357.345 344.784 394.832 349.044 369.273C353.303 343.713 322.632 340.306 322.632 340.306C322.632 340.306 284.294 309.634 281.738 303.671C279.182 297.707 276.626 260.22 277.478 251.7C278.33 243.18 249.362 250.848 249.362 250.848Z" fill="#FFB8B8"/>
</g>
<g id="arm1">
<path id="Vector_7" d="M121.754 236.884L115.79 293.115L45.928 357.865C45.928 357.865 -0.930596 386.832 24.6287 392.796C50.1879 398.76 62.1155 368.94 62.1155 368.94L137.941 317.822C137.941 317.822 147.871 239.408 144.464 236C141.056 232.592 121.754 236.884 121.754 236.884Z" fill="#FFB8B8"/>
</g>
<path id="Vector_8" d="M244.251 172.467C244.251 172.467 223.803 184.394 203.356 180.134C182.908 175.874 179.501 169.911 179.501 169.911C179.501 169.911 153.089 174.17 150.533 184.394C147.978 194.618 150.533 209.953 150.533 209.953C150.533 209.953 127.53 234.661 147.126 264.48L151.385 299.411C151.385 299.411 209.32 290.891 222.951 299.411C236.583 307.931 240.843 301.115 240.843 301.115L250.214 259.368L280.034 193.766C280.034 193.766 280.034 185.246 263.846 180.134C247.658 175.022 244.251 172.467 244.251 172.467Z" fill="#94B6DE"/>
<path id="Vector_9" d="M268.958 186.098L280.034 194.618C280.034 194.618 291.109 255.108 281.738 256.812C272.366 258.516 241.695 262.776 241.695 256.812C241.695 250.848 268.958 186.098 268.958 186.098Z" fill="#94B6DE"/>
<path id="Vector_10" d="M156.497 180.986H150.533C150.533 180.986 130.086 195.47 126.678 211.657C123.27 227.845 113.898 244.884 121.566 246.588C129.234 248.292 152.237 255.108 155.645 252.552C159.053 249.996 156.497 180.986 156.497 180.986Z" fill="#94B6DE"/>
<path id="Vector_11" d="M297.784 480H64.0635C94.2135 411.46 148.834 316.45 148.834 316.45L152.234 303.67L236.904 303.7L239.144 315.6C239.144 315.6 271.604 405.4 297.784 480Z" fill="#2F2E41"/>
<path id="Vector_12" d="M205.64 55.0151C214.581 55.0151 221.83 47.7665 221.83 38.8249C221.83 29.8833 214.581 22.6348 205.64 22.6348C196.698 22.6348 189.45 29.8833 189.45 38.8249C189.45 47.7665 196.698 55.0151 205.64 55.0151Z" fill="#2F2E41"/>
<path id="Vector_13" d="M186.211 30.1902C186.212 26.1767 187.703 22.3064 190.395 19.33C193.087 16.3536 196.789 14.4833 200.783 14.0818C200.25 14.0289 199.71 14 199.164 14C194.87 14 190.752 15.7058 187.715 18.742C184.679 21.7782 182.973 25.8963 182.973 30.1902C182.973 34.4841 184.679 38.6021 187.715 41.6383C190.752 44.6746 194.87 46.3803 199.164 46.3803C199.71 46.3803 200.25 46.3515 200.783 46.2986C196.789 45.8971 193.087 44.0267 190.395 41.0503C187.703 38.0739 186.212 34.2036 186.211 30.1902V30.1902Z" fill="#2F2E41"/>
<path id="Vector_14" d="M206.764 156.279C226.526 156.279 242.547 140.258 242.547 120.496C242.547 100.734 226.526 84.7131 206.764 84.7131C187.001 84.7131 170.981 100.734 170.981 120.496C170.981 140.258 187.001 156.279 206.764 156.279Z" fill="#FFB8B8"/>
<path id="Vector_15" d="M193.731 76.0639C193.731 76.0639 193.392 74.182 180.171 79.1401C166.949 84.0982 159.024 120.687 165.634 142.172C168.299 150.831 166.131 157.074 162.594 161.442C149.32 177.833 154.546 202.452 173.88 210.881C174.426 211.119 174.983 211.354 175.551 211.586L183.814 216.544C183.814 216.544 173.28 202.683 178.552 184.953C183.13 169.846 183.695 153.807 180.192 138.415C179.587 135.818 178.9 133.142 178.12 130.41C171.509 107.272 174.724 109.944 197.862 86.8065C197.862 86.8065 211.084 96.7228 222.653 101.681C234.222 106.639 244.138 111.597 235.875 128.124C227.611 144.651 207.779 159.526 221 181.011C234.222 202.496 235.875 194.233 234.222 202.496L232.569 210.76L242.486 200.844L235.875 214.065C235.875 214.065 257.36 214.065 263.971 197.538L267.276 200.844C267.276 200.844 280.498 177.706 255.707 156.22C255.707 156.22 247.444 151.262 259.013 134.735C270.582 118.208 261.697 82.6747 246.822 76.0639C231.948 69.453 193.731 76.0639 193.731 76.0639Z" fill="#2F2E41"/>
</g>
</svg>
